<?xml version="1.0" encoding="utf-8" standalone="no"?>
<!DOCTYPE svg PUBLIC "-//W3C//DTD SVG 1.1//EN"
  "http://www.w3.org/Graphics/SVG/1.1/DTD/svg11.dtd">
<svg xmlns:xlink="http://www.w3.org/1999/xlink" width="243.779528pt" height="146.267717pt" viewBox="0 0 243.779528 146.267717" xmlns="http://www.w3.org/2000/svg" version="1.1">
 <metadata>
  <rdf:RDF xmlns:dc="http://purl.org/dc/elements/1.1/" xmlns:cc="http://creativecommons.org/ns#" xmlns:rdf="http://www.w3.org/1999/02/22-rdf-syntax-ns#">
   <cc:Work>
    <dc:type rdf:resource="http://purl.org/dc/dcmitype/StillImage"/>
    <dc:date>2025-09-09T15:04:01.906294</dc:date>
    <dc:format>image/svg+xml</dc:format>
    <dc:creator>
     <cc:Agent>
      <dc:title>Matplotlib v3.8.4, https://matplotlib.org/</dc:title>
     </cc:Agent>
    </dc:creator>
   </cc:Work>
  </rdf:RDF>
 </metadata>
 <defs>
  <style type="text/css">*{stroke-linejoin: round; stroke-linecap: butt}</style>
 </defs>
 <g id="figure_1">
  <g id="patch_1">
   <path d="M 0 146.267717 
L 243.779528 146.267717 
L 243.779528 0 
L 0 0 
z
" style="fill: #ffffff"/>
  </g>
  <g id="axes_1"/>
  <g id="axes_2">
   <g id="patch_2">
    <path d="M 167.989468 62.895118 
L 236.466142 62.895118 
L 236.466142 7.313386 
L 167.989468 7.313386 
z
" style="fill: #ffffff"/>
   </g>
   <g id="matplotlib.axis_1">
    <g id="xtick_1">
     <g id="line2d_1">
      <defs>
       <path id="mc3f13797a2" d="M 0 0 
L 0 3.5 
" style="stroke: #000000; stroke-width: 0.8"/>
      </defs>
      <g>
       <use xlink:href="#mc3f13797a2" x="171.102044" y="62.895118" style="stroke: #000000; stroke-width: 0.8"/>
      </g>
     </g>
     <g id="text_1">
      <!-- 0 -->
      <g transform="translate(168.877669 75.621368) scale(0.08 -0.08)">
       <defs>
        <path id="ArialMT-30" d="M 266 2259 
Q 266 3072 433 3567 
Q 600 4063 929 4331 
Q 1259 4600 1759 4600 
Q 2128 4600 2406 4451 
Q 2684 4303 2865 4023 
Q 3047 3744 3150 3342 
Q 3253 2941 3253 2259 
Q 3253 1453 3087 958 
Q 2922 463 2592 192 
Q 2263 -78 1759 -78 
Q 1097 -78 719 397 
Q 266 969 266 2259 
z
M 844 2259 
Q 844 1131 1108 757 
Q 1372 384 1759 384 
Q 2147 384 2411 759 
Q 2675 1134 2675 2259 
Q 2675 3391 2411 3762 
Q 2147 4134 1753 4134 
Q 1366 4134 1134 3806 
Q 844 3388 844 2259 
z
" transform="scale(0.015625)"/>
       </defs>
       <use xlink:href="#ArialMT-30"/>
      </g>
     </g>
    </g>
    <g id="xtick_2">
     <g id="line2d_2">
      <g>
       <use xlink:href="#mc3f13797a2" x="186.664925" y="62.895118" style="stroke: #000000; stroke-width: 0.8"/>
      </g>
     </g>
     <g id="text_2">
      <!-- 1 -->
      <g transform="translate(184.44055 75.621368) scale(0.08 -0.08)">
       <defs>
        <path id="ArialMT-31" d="M 2384 0 
L 1822 0 
L 1822 3584 
Q 1619 3391 1289 3197 
Q 959 3003 697 2906 
L 697 3450 
Q 1169 3672 1522 3987 
Q 1875 4303 2022 4600 
L 2384 4600 
L 2384 0 
z
" transform="scale(0.015625)"/>
       </defs>
       <use xlink:href="#ArialMT-31"/>
      </g>
     </g>
    </g>
    <g id="xtick_3">
     <g id="line2d_3">
      <g>
       <use xlink:href="#mc3f13797a2" x="202.227805" y="62.895118" style="stroke: #000000; stroke-width: 0.8"/>
      </g>
     </g>
     <g id="text_3">
      <!-- 2 -->
      <g transform="translate(200.00343 75.621368) scale(0.08 -0.08)">
       <defs>
        <path id="ArialMT-32" d="M 3222 541 
L 3222 0 
L 194 0 
Q 188 203 259 391 
Q 375 700 629 1000 
Q 884 1300 1366 1694 
Q 2113 2306 2375 2664 
Q 2638 3022 2638 3341 
Q 2638 3675 2398 3904 
Q 2159 4134 1775 4134 
Q 1369 4134 1125 3890 
Q 881 3647 878 3216 
L 300 3275 
Q 359 3922 746 4261 
Q 1134 4600 1788 4600 
Q 2447 4600 2831 4234 
Q 3216 3869 3216 3328 
Q 3216 3053 3103 2787 
Q 2991 2522 2730 2228 
Q 2469 1934 1863 1422 
Q 1356 997 1212 845 
Q 1069 694 975 541 
L 3222 541 
z
" transform="scale(0.015625)"/>
       </defs>
       <use xlink:href="#ArialMT-32"/>
      </g>
     </g>
    </g>
    <g id="xtick_4">
     <g id="line2d_4">
      <g>
       <use xlink:href="#mc3f13797a2" x="217.790685" y="62.895118" style="stroke: #000000; stroke-width: 0.8"/>
      </g>
     </g>
     <g id="text_4">
      <!-- 3 -->
      <g transform="translate(215.56631 75.621368) scale(0.08 -0.08)">
       <defs>
        <path id="ArialMT-33" d="M 269 1209 
L 831 1284 
Q 928 806 1161 595 
Q 1394 384 1728 384 
Q 2125 384 2398 659 
Q 2672 934 2672 1341 
Q 2672 1728 2419 1979 
Q 2166 2231 1775 2231 
Q 1616 2231 1378 2169 
L 1441 2663 
Q 1497 2656 1531 2656 
Q 1891 2656 2178 2843 
Q 2466 3031 2466 3422 
Q 2466 3731 2256 3934 
Q 2047 4138 1716 4138 
Q 1388 4138 1169 3931 
Q 950 3725 888 3313 
L 325 3413 
Q 428 3978 793 4289 
Q 1159 4600 1703 4600 
Q 2078 4600 2393 4439 
Q 2709 4278 2876 4000 
Q 3044 3722 3044 3409 
Q 3044 3113 2884 2869 
Q 2725 2625 2413 2481 
Q 2819 2388 3044 2092 
Q 3269 1797 3269 1353 
Q 3269 753 2831 336 
Q 2394 -81 1725 -81 
Q 1122 -81 723 278 
Q 325 638 269 1209 
z
" transform="scale(0.015625)"/>
       </defs>
       <use xlink:href="#ArialMT-33"/>
      </g>
     </g>
    </g>
    <g id="xtick_5">
     <g id="line2d_5">
      <g>
       <use xlink:href="#mc3f13797a2" x="233.353566" y="62.895118" style="stroke: #000000; stroke-width: 0.8"/>
      </g>
     </g>
     <g id="text_5">
      <!-- 4 -->
      <g transform="translate(231.129191 75.621368) scale(0.08 -0.08)">
       <defs>
        <path id="ArialMT-34" d="M 2069 0 
L 2069 1097 
L 81 1097 
L 81 1613 
L 2172 4581 
L 2631 4581 
L 2631 1613 
L 3250 1613 
L 3250 1097 
L 2631 1097 
L 2631 0 
L 2069 0 
z
M 2069 1613 
L 2069 3678 
L 634 1613 
L 2069 1613 
z
" transform="scale(0.015625)"/>
       </defs>
       <use xlink:href="#ArialMT-34"/>
      </g>
     </g>
    </g>
    <g id="text_6">
     <!-- Distance $s/\sigma$ -->
     <g transform="translate(179.547805 82.937618) scale(0.08 -0.08)">
      <defs>
       <path id="ArialMT-44" d="M 494 0 
L 494 4581 
L 2072 4581 
Q 2606 4581 2888 4516 
Q 3281 4425 3559 4188 
Q 3922 3881 4101 3404 
Q 4281 2928 4281 2316 
Q 4281 1794 4159 1391 
Q 4038 988 3847 723 
Q 3656 459 3429 307 
Q 3203 156 2883 78 
Q 2563 0 2147 0 
L 494 0 
z
M 1100 541 
L 2078 541 
Q 2531 541 2789 625 
Q 3047 709 3200 863 
Q 3416 1078 3536 1442 
Q 3656 1806 3656 2325 
Q 3656 3044 3420 3430 
Q 3184 3816 2847 3947 
Q 2603 4041 2063 4041 
L 1100 4041 
L 1100 541 
z
" transform="scale(0.015625)"/>
       <path id="ArialMT-69" d="M 425 3934 
L 425 4581 
L 988 4581 
L 988 3934 
L 425 3934 
z
M 425 0 
L 425 3319 
L 988 3319 
L 988 0 
L 425 0 
z
" transform="scale(0.015625)"/>
       <path id="ArialMT-73" d="M 197 991 
L 753 1078 
Q 800 744 1014 566 
Q 1228 388 1613 388 
Q 2000 388 2187 545 
Q 2375 703 2375 916 
Q 2375 1106 2209 1216 
Q 2094 1291 1634 1406 
Q 1016 1563 777 1677 
Q 538 1791 414 1992 
Q 291 2194 291 2438 
Q 291 2659 392 2848 
Q 494 3038 669 3163 
Q 800 3259 1026 3326 
Q 1253 3394 1513 3394 
Q 1903 3394 2198 3281 
Q 2494 3169 2634 2976 
Q 2775 2784 2828 2463 
L 2278 2388 
Q 2241 2644 2061 2787 
Q 1881 2931 1553 2931 
Q 1166 2931 1000 2803 
Q 834 2675 834 2503 
Q 834 2394 903 2306 
Q 972 2216 1119 2156 
Q 1203 2125 1616 2013 
Q 2213 1853 2448 1751 
Q 2684 1650 2818 1456 
Q 2953 1263 2953 975 
Q 2953 694 2789 445 
Q 2625 197 2315 61 
Q 2006 -75 1616 -75 
Q 969 -75 630 194 
Q 291 463 197 991 
z
" transform="scale(0.015625)"/>
       <path id="ArialMT-74" d="M 1650 503 
L 1731 6 
Q 1494 -44 1306 -44 
Q 1000 -44 831 53 
Q 663 150 594 308 
Q 525 466 525 972 
L 525 2881 
L 113 2881 
L 113 3319 
L 525 3319 
L 525 4141 
L 1084 4478 
L 1084 3319 
L 1650 3319 
L 1650 2881 
L 1084 2881 
L 1084 941 
Q 1084 700 1114 631 
Q 1144 563 1211 522 
Q 1278 481 1403 481 
Q 1497 481 1650 503 
z
" transform="scale(0.015625)"/>
       <path id="ArialMT-61" d="M 2588 409 
Q 2275 144 1986 34 
Q 1697 -75 1366 -75 
Q 819 -75 525 192 
Q 231 459 231 875 
Q 231 1119 342 1320 
Q 453 1522 633 1644 
Q 813 1766 1038 1828 
Q 1203 1872 1538 1913 
Q 2219 1994 2541 2106 
Q 2544 2222 2544 2253 
Q 2544 2597 2384 2738 
Q 2169 2928 1744 2928 
Q 1347 2928 1158 2789 
Q 969 2650 878 2297 
L 328 2372 
Q 403 2725 575 2942 
Q 747 3159 1072 3276 
Q 1397 3394 1825 3394 
Q 2250 3394 2515 3294 
Q 2781 3194 2906 3042 
Q 3031 2891 3081 2659 
Q 3109 2516 3109 2141 
L 3109 1391 
Q 3109 606 3145 398 
Q 3181 191 3288 0 
L 2700 0 
Q 2613 175 2588 409 
z
M 2541 1666 
Q 2234 1541 1622 1453 
Q 1275 1403 1131 1340 
Q 988 1278 909 1158 
Q 831 1038 831 891 
Q 831 666 1001 516 
Q 1172 366 1500 366 
Q 1825 366 2078 508 
Q 2331 650 2450 897 
Q 2541 1088 2541 1459 
L 2541 1666 
z
" transform="scale(0.015625)"/>
       <path id="ArialMT-6e" d="M 422 0 
L 422 3319 
L 928 3319 
L 928 2847 
Q 1294 3394 1984 3394 
Q 2284 3394 2536 3286 
Q 2788 3178 2913 3003 
Q 3038 2828 3088 2588 
Q 3119 2431 3119 2041 
L 3119 0 
L 2556 0 
L 2556 2019 
Q 2556 2363 2490 2533 
Q 2425 2703 2258 2804 
Q 2091 2906 1866 2906 
Q 1506 2906 1245 2678 
Q 984 2450 984 1813 
L 984 0 
L 422 0 
z
" transform="scale(0.015625)"/>
       <path id="ArialMT-63" d="M 2588 1216 
L 3141 1144 
Q 3050 572 2676 248 
Q 2303 -75 1759 -75 
Q 1078 -75 664 370 
Q 250 816 250 1647 
Q 250 2184 428 2587 
Q 606 2991 970 3192 
Q 1334 3394 1763 3394 
Q 2303 3394 2647 3120 
Q 2991 2847 3088 2344 
L 2541 2259 
Q 2463 2594 2264 2762 
Q 2066 2931 1784 2931 
Q 1359 2931 1093 2626 
Q 828 2322 828 1663 
Q 828 994 1084 691 
Q 1341 388 1753 388 
Q 2084 388 2306 591 
Q 2528 794 2588 1216 
z
" transform="scale(0.015625)"/>
       <path id="ArialMT-65" d="M 2694 1069 
L 3275 997 
Q 3138 488 2766 206 
Q 2394 -75 1816 -75 
Q 1088 -75 661 373 
Q 234 822 234 1631 
Q 234 2469 665 2931 
Q 1097 3394 1784 3394 
Q 2450 3394 2872 2941 
Q 3294 2488 3294 1666 
Q 3294 1616 3291 1516 
L 816 1516 
Q 847 969 1125 678 
Q 1403 388 1819 388 
Q 2128 388 2347 550 
Q 2566 713 2694 1069 
z
M 847 1978 
L 2700 1978 
Q 2663 2397 2488 2606 
Q 2219 2931 1791 2931 
Q 1403 2931 1139 2672 
Q 875 2413 847 1978 
z
" transform="scale(0.015625)"/>
       <path id="ArialMT-20" transform="scale(0.015625)"/>
       <path id="DejaVuSans-Oblique-73" d="M 3200 3397 
L 3091 2853 
Q 2863 2978 2609 3040 
Q 2356 3103 2088 3103 
Q 1634 3103 1373 2948 
Q 1113 2794 1113 2528 
Q 1113 2219 1719 2053 
Q 1766 2041 1788 2034 
L 1972 1978 
Q 2547 1819 2739 1644 
Q 2931 1469 2931 1166 
Q 2931 609 2489 259 
Q 2047 -91 1331 -91 
Q 1053 -91 747 -37 
Q 441 16 72 128 
L 184 722 
Q 500 559 806 475 
Q 1113 391 1394 391 
Q 1816 391 2080 572 
Q 2344 753 2344 1031 
Q 2344 1331 1650 1516 
L 1591 1531 
L 1394 1581 
Q 956 1697 753 1886 
Q 550 2075 550 2369 
Q 550 2928 970 3256 
Q 1391 3584 2113 3584 
Q 2397 3584 2667 3537 
Q 2938 3491 3200 3397 
z
" transform="scale(0.015625)"/>
       <path id="DejaVuSans-2f" d="M 1625 4666 
L 2156 4666 
L 531 -594 
L 0 -594 
L 1625 4666 
z
" transform="scale(0.015625)"/>
       <path id="DejaVuSans-Oblique-3c3" d="M 2219 3044 
Q 1744 3044 1422 2700 
Q 1081 2341 969 1747 
Q 844 1119 1044 756 
Q 1241 397 1706 397 
Q 2166 397 2503 759 
Q 2844 1122 2966 1747 
Q 3075 2319 2881 2700 
Q 2700 3044 2219 3044 
z
M 2309 3503 
L 4219 3500 
L 4106 2925 
L 3463 2925 
Q 3706 2438 3575 1747 
Q 3406 888 2884 400 
Q 2359 -91 1609 -91 
Q 856 -91 525 400 
Q 194 888 363 1747 
Q 528 2609 1050 3097 
Q 1484 3503 2309 3503 
z
" transform="scale(0.015625)"/>
      </defs>
      <use xlink:href="#ArialMT-44" transform="translate(0 0.09375)"/>
      <use xlink:href="#ArialMT-69" transform="translate(72.216797 0.09375)"/>
      <use xlink:href="#ArialMT-73" transform="translate(94.433594 0.09375)"/>
      <use xlink:href="#ArialMT-74" transform="translate(144.433594 0.09375)"/>
      <use xlink:href="#ArialMT-61" transform="translate(172.216797 0.09375)"/>
      <use xlink:href="#ArialMT-6e" transform="translate(227.832031 0.09375)"/>
      <use xlink:href="#ArialMT-63" transform="translate(283.447266 0.09375)"/>
      <use xlink:href="#ArialMT-65" transform="translate(333.447266 0.09375)"/>
      <use xlink:href="#ArialMT-20" transform="translate(389.0625 0.09375)"/>
      <use xlink:href="#DejaVuSans-Oblique-73" transform="translate(416.845703 0.09375)"/>
      <use xlink:href="#DejaVuSans-2f" transform="translate(468.945312 0.09375)"/>
      <use xlink:href="#DejaVuSans-Oblique-3c3" transform="translate(502.636719 0.09375)"/>
     </g>
    </g>
   </g>
   <g id="matplotlib.axis_2">
    <g id="ytick_1">
     <g id="line2d_6">
      <defs>
       <path id="m2f21996996" d="M 0 0 
L -3.5 0 
" style="stroke: #000000; stroke-width: 0.8"/>
      </defs>
      <g>
       <use xlink:href="#m2f21996996" x="167.989468" y="61.311411" style="stroke: #000000; stroke-width: 0.8"/>
      </g>
     </g>
     <g id="text_7">
      <!-- 0 -->
      <g transform="translate(156.540718 64.174536) scale(0.08 -0.08)">
       <use xlink:href="#ArialMT-30"/>
      </g>
     </g>
    </g>
    <g id="ytick_2">
     <g id="line2d_7">
      <g>
       <use xlink:href="#m2f21996996" x="167.989468" y="9.839828" style="stroke: #000000; stroke-width: 0.8"/>
      </g>
     </g>
     <g id="text_8">
      <!-- 1 -->
      <g transform="translate(156.540718 12.702953) scale(0.08 -0.08)">
       <use xlink:href="#ArialMT-31"/>
      </g>
     </g>
    </g>
    <g id="text_9">
     <!-- Interaction -->
     <g transform="translate(141.894718 53.780502) rotate(-90) scale(0.08 -0.08)">
      <defs>
       <path id="ArialMT-49" d="M 597 0 
L 597 4581 
L 1203 4581 
L 1203 0 
L 597 0 
z
" transform="scale(0.015625)"/>
       <path id="ArialMT-72" d="M 416 0 
L 416 3319 
L 922 3319 
L 922 2816 
Q 1116 3169 1280 3281 
Q 1444 3394 1641 3394 
Q 1925 3394 2219 3213 
L 2025 2691 
Q 1819 2813 1613 2813 
Q 1428 2813 1281 2702 
Q 1134 2591 1072 2394 
Q 978 2094 978 1738 
L 978 0 
L 416 0 
z
" transform="scale(0.015625)"/>
       <path id="ArialMT-6f" d="M 213 1659 
Q 213 2581 725 3025 
Q 1153 3394 1769 3394 
Q 2453 3394 2887 2945 
Q 3322 2497 3322 1706 
Q 3322 1066 3130 698 
Q 2938 331 2570 128 
Q 2203 -75 1769 -75 
Q 1072 -75 642 372 
Q 213 819 213 1659 
z
M 791 1659 
Q 791 1022 1069 705 
Q 1347 388 1769 388 
Q 2188 388 2466 706 
Q 2744 1025 2744 1678 
Q 2744 2294 2464 2611 
Q 2184 2928 1769 2928 
Q 1347 2928 1069 2612 
Q 791 2297 791 1659 
z
" transform="scale(0.015625)"/>
      </defs>
      <use xlink:href="#ArialMT-49"/>
      <use xlink:href="#ArialMT-6e" x="27.783203"/>
      <use xlink:href="#ArialMT-74" x="83.398438"/>
      <use xlink:href="#ArialMT-65" x="111.181641"/>
      <use xlink:href="#ArialMT-72" x="166.796875"/>
      <use xlink:href="#ArialMT-61" x="200.097656"/>
      <use xlink:href="#ArialMT-63" x="255.712891"/>
      <use xlink:href="#ArialMT-74" x="305.712891"/>
      <use xlink:href="#ArialMT-69" x="333.496094"/>
      <use xlink:href="#ArialMT-6f" x="355.712891"/>
      <use xlink:href="#ArialMT-6e" x="411.328125"/>
     </g>
     <!-- strength $g(s/\sigma)$ -->
     <g transform="translate(150.780718 62.304252) rotate(-90) scale(0.08 -0.08)">
      <defs>
       <path id="ArialMT-67" d="M 319 -275 
L 866 -356 
Q 900 -609 1056 -725 
Q 1266 -881 1628 -881 
Q 2019 -881 2231 -725 
Q 2444 -569 2519 -288 
Q 2563 -116 2559 434 
Q 2191 0 1641 0 
Q 956 0 581 494 
Q 206 988 206 1678 
Q 206 2153 378 2554 
Q 550 2956 876 3175 
Q 1203 3394 1644 3394 
Q 2231 3394 2613 2919 
L 2613 3319 
L 3131 3319 
L 3131 450 
Q 3131 -325 2973 -648 
Q 2816 -972 2473 -1159 
Q 2131 -1347 1631 -1347 
Q 1038 -1347 672 -1080 
Q 306 -813 319 -275 
z
M 784 1719 
Q 784 1066 1043 766 
Q 1303 466 1694 466 
Q 2081 466 2343 764 
Q 2606 1063 2606 1700 
Q 2606 2309 2336 2618 
Q 2066 2928 1684 2928 
Q 1309 2928 1046 2623 
Q 784 2319 784 1719 
z
" transform="scale(0.015625)"/>
       <path id="ArialMT-68" d="M 422 0 
L 422 4581 
L 984 4581 
L 984 2938 
Q 1378 3394 1978 3394 
Q 2347 3394 2619 3248 
Q 2891 3103 3008 2847 
Q 3125 2591 3125 2103 
L 3125 0 
L 2563 0 
L 2563 2103 
Q 2563 2525 2380 2717 
Q 2197 2909 1863 2909 
Q 1613 2909 1392 2779 
Q 1172 2650 1078 2428 
Q 984 2206 984 1816 
L 984 0 
L 422 0 
z
" transform="scale(0.015625)"/>
       <path id="DejaVuSans-Oblique-67" d="M 3816 3500 
L 3219 434 
Q 3047 -456 2561 -893 
Q 2075 -1331 1253 -1331 
Q 950 -1331 690 -1286 
Q 431 -1241 206 -1147 
L 313 -588 
Q 525 -725 762 -790 
Q 1000 -856 1269 -856 
Q 1816 -856 2167 -557 
Q 2519 -259 2631 300 
L 2681 563 
Q 2441 288 2122 144 
Q 1803 0 1434 0 
Q 903 0 598 351 
Q 294 703 294 1319 
Q 294 1803 478 2267 
Q 663 2731 997 3091 
Q 1219 3328 1514 3456 
Q 1809 3584 2131 3584 
Q 2484 3584 2746 3420 
Q 3009 3256 3138 2956 
L 3238 3500 
L 3816 3500 
z
M 2950 2216 
Q 2950 2641 2750 2872 
Q 2550 3103 2181 3103 
Q 1953 3103 1747 3012 
Q 1541 2922 1394 2759 
Q 1156 2491 1023 2127 
Q 891 1763 891 1375 
Q 891 944 1092 712 
Q 1294 481 1672 481 
Q 2219 481 2584 976 
Q 2950 1472 2950 2216 
z
" transform="scale(0.015625)"/>
       <path id="DejaVuSans-28" d="M 1984 4856 
Q 1566 4138 1362 3434 
Q 1159 2731 1159 2009 
Q 1159 1288 1364 580 
Q 1569 -128 1984 -844 
L 1484 -844 
Q 1016 -109 783 600 
Q 550 1309 550 2009 
Q 550 2706 781 3412 
Q 1013 4119 1484 4856 
L 1984 4856 
z
" transform="scale(0.015625)"/>
       <path id="DejaVuSans-29" d="M 513 4856 
L 1013 4856 
Q 1481 4119 1714 3412 
Q 1947 2706 1947 2009 
Q 1947 1309 1714 600 
Q 1481 -109 1013 -844 
L 513 -844 
Q 928 -128 1133 580 
Q 1338 1288 1338 2009 
Q 1338 2731 1133 3434 
Q 928 4138 513 4856 
z
" transform="scale(0.015625)"/>
      </defs>
      <use xlink:href="#ArialMT-73" transform="translate(0 0.125)"/>
      <use xlink:href="#ArialMT-74" transform="translate(50 0.125)"/>
      <use xlink:href="#ArialMT-72" transform="translate(77.783203 0.125)"/>
      <use xlink:href="#ArialMT-65" transform="translate(111.083984 0.125)"/>
      <use xlink:href="#ArialMT-6e" transform="translate(166.699219 0.125)"/>
      <use xlink:href="#ArialMT-67" transform="translate(222.314453 0.125)"/>
      <use xlink:href="#ArialMT-74" transform="translate(277.929688 0.125)"/>
      <use xlink:href="#ArialMT-68" transform="translate(305.712891 0.125)"/>
      <use xlink:href="#ArialMT-20" transform="translate(361.328125 0.125)"/>
      <use xlink:href="#DejaVuSans-Oblique-67" transform="translate(389.111328 0.125)"/>
      <use xlink:href="#DejaVuSans-28" transform="translate(452.587891 0.125)"/>
      <use xlink:href="#DejaVuSans-Oblique-73" transform="translate(491.601562 0.125)"/>
      <use xlink:href="#DejaVuSans-2f" transform="translate(543.701172 0.125)"/>
      <use xlink:href="#DejaVuSans-Oblique-3c3" transform="translate(577.392578 0.125)"/>
      <use xlink:href="#DejaVuSans-29" transform="translate(640.771484 0.125)"/>
     </g>
    </g>
   </g>
   <g id="line2d_8">
    <path d="M 171.102044 9.839828 
L 172.372483 13.874663 
L 173.642923 17.593208 
L 174.913362 21.020258 
L 176.183801 24.178664 
L 177.45424 27.089483 
L 178.724679 29.772125 
L 179.995119 32.244475 
L 181.265558 34.523019 
L 182.535997 36.622949 
L 183.806436 38.558267 
L 185.076876 40.341876 
L 186.347315 41.985668 
L 187.617754 43.500604 
L 188.888193 44.896785 
L 190.158632 46.183521 
L 191.429072 47.369389 
L 192.699511 48.462298 
L 193.96995 49.469534 
L 195.240389 50.397814 
L 196.510828 51.253326 
L 197.781268 52.041774 
L 199.051707 52.768417 
L 200.322146 53.438098 
L 201.592585 54.055284 
L 202.863025 54.624088 
L 204.133464 55.148305 
L 205.403903 55.631428 
L 206.674342 56.076679 
L 207.944781 56.487027 
L 209.215221 56.865209 
L 210.48566 57.213744 
L 211.756099 57.534959 
L 213.026538 57.830993 
L 214.296977 58.103821 
L 215.567417 58.355263 
L 216.837856 58.586994 
L 218.108295 58.80056 
L 219.378734 58.997384 
L 220.649174 59.17878 
L 221.919613 59.345956 
L 223.190052 59.500027 
L 224.460491 59.64202 
L 225.73093 59.772883 
L 227.00137 59.893488 
L 228.271809 60.004638 
L 229.542248 60.107075 
L 230.812687 60.201483 
L 232.083126 60.288489 
L 233.353566 60.368676 
" clip-path="url(#p2f8f4a1b90)" style="fill: none; stroke: #000000; stroke-linecap: square"/>
   </g>
   <g id="patch_3">
    <path d="M 167.989468 62.895118 
L 167.989468 7.313386 
" style="fill: none; stroke: #000000; stroke-width: 0.8; stroke-linejoin: miter; stroke-linecap: square"/>
   </g>
   <g id="patch_4">
    <path d="M 167.989468 62.895118 
L 236.466142 62.895118 
" style="fill: none; stroke: #000000; stroke-width: 0.8; stroke-linejoin: miter; stroke-linecap: square"/>
   </g>
  </g>
  <g id="axes_3">
   <g id="patch_5">
    <path d="M 36.566929 127.252913 
L 90.586256 127.252913 
L 90.586256 95.074016 
L 36.566929 95.074016 
z
" style="fill: #ffffff"/>
   </g>
   <g id="matplotlib.axis_3">
    <g id="xtick_6">
     <g id="line2d_9">
      <g>
       <use xlink:href="#mc3f13797a2" x="36.566929" y="127.252913" style="stroke: #000000; stroke-width: 0.8"/>
      </g>
     </g>
     <g id="text_10">
      <!-- 0 -->
      <g transform="translate(34.342554 139.979163) scale(0.08 -0.08)">
       <use xlink:href="#ArialMT-30"/>
      </g>
     </g>
    </g>
    <g id="xtick_7">
     <g id="line2d_10">
      <g>
       <use xlink:href="#mc3f13797a2" x="90.586256" y="127.252913" style="stroke: #000000; stroke-width: 0.8"/>
      </g>
     </g>
     <g id="text_11">
      <!-- 3 -->
      <g transform="translate(88.361881 139.979163) scale(0.08 -0.08)">
       <use xlink:href="#ArialMT-33"/>
      </g>
     </g>
    </g>
    <g id="text_12">
     <!-- Position $x/\sigma$ -->
     <g transform="translate(41.976593 144.295413) scale(0.08 -0.08)">
      <defs>
       <path id="ArialMT-50" d="M 494 0 
L 494 4581 
L 2222 4581 
Q 2678 4581 2919 4538 
Q 3256 4481 3484 4323 
Q 3713 4166 3852 3881 
Q 3991 3597 3991 3256 
Q 3991 2672 3619 2267 
Q 3247 1863 2275 1863 
L 1100 1863 
L 1100 0 
L 494 0 
z
M 1100 2403 
L 2284 2403 
Q 2872 2403 3119 2622 
Q 3366 2841 3366 3238 
Q 3366 3525 3220 3729 
Q 3075 3934 2838 4000 
Q 2684 4041 2272 4041 
L 1100 4041 
L 1100 2403 
z
" transform="scale(0.015625)"/>
       <path id="DejaVuSans-Oblique-78" d="M 3841 3500 
L 2234 1784 
L 3219 0 
L 2559 0 
L 1819 1388 
L 531 0 
L -166 0 
L 1556 1844 
L 641 3500 
L 1300 3500 
L 1972 2234 
L 3144 3500 
L 3841 3500 
z
" transform="scale(0.015625)"/>
      </defs>
      <use xlink:href="#ArialMT-50" transform="translate(0 0.09375)"/>
      <use xlink:href="#ArialMT-6f" transform="translate(66.699219 0.09375)"/>
      <use xlink:href="#ArialMT-73" transform="translate(122.314453 0.09375)"/>
      <use xlink:href="#ArialMT-69" transform="translate(172.314453 0.09375)"/>
      <use xlink:href="#ArialMT-74" transform="translate(194.53125 0.09375)"/>
      <use xlink:href="#ArialMT-69" transform="translate(222.314453 0.09375)"/>
      <use xlink:href="#ArialMT-6f" transform="translate(244.53125 0.09375)"/>
      <use xlink:href="#ArialMT-6e" transform="translate(300.146484 0.09375)"/>
      <use xlink:href="#ArialMT-20" transform="translate(355.761719 0.09375)"/>
      <use xlink:href="#DejaVuSans-Oblique-78" transform="translate(383.544922 0.09375)"/>
      <use xlink:href="#DejaVuSans-2f" transform="translate(442.724609 0.09375)"/>
      <use xlink:href="#DejaVuSans-Oblique-3c3" transform="translate(476.416016 0.09375)"/>
     </g>
    </g>
   </g>
   <g id="matplotlib.axis_4">
    <g id="ytick_3">
     <g id="line2d_11">
      <g>
       <use xlink:href="#m2f21996996" x="31.566929" y="127.252913" style="stroke: #000000; stroke-width: 0.8"/>
      </g>
     </g>
     <g id="text_13">
      <!-- 0 -->
      <g transform="translate(20.118179 130.116038) scale(0.08 -0.08)">
       <use xlink:href="#ArialMT-30"/>
      </g>
     </g>
    </g>
    <g id="ytick_4">
     <g id="line2d_12">
      <g>
       <use xlink:href="#m2f21996996" x="31.566929" y="95.074016" style="stroke: #000000; stroke-width: 0.8"/>
      </g>
     </g>
     <g id="text_14">
      <!-- 1 -->
      <g transform="translate(20.118179 97.937141) scale(0.08 -0.08)">
       <use xlink:href="#ArialMT-31"/>
      </g>
     </g>
    </g>
    <g id="text_15">
     <!-- Density $\rho/\rho_\text{max}$ -->
     <g transform="translate(18.358179 138.283465) rotate(-90) scale(0.08 -0.08)">
      <defs>
       <path id="ArialMT-79" d="M 397 -1278 
L 334 -750 
Q 519 -800 656 -800 
Q 844 -800 956 -737 
Q 1069 -675 1141 -563 
Q 1194 -478 1313 -144 
Q 1328 -97 1363 -6 
L 103 3319 
L 709 3319 
L 1400 1397 
Q 1534 1031 1641 628 
Q 1738 1016 1872 1384 
L 2581 3319 
L 3144 3319 
L 1881 -56 
Q 1678 -603 1566 -809 
Q 1416 -1088 1222 -1217 
Q 1028 -1347 759 -1347 
Q 597 -1347 397 -1278 
z
" transform="scale(0.015625)"/>
       <path id="DejaVuSans-Oblique-3c1" d="M 1203 2875 
Q 1453 3194 1981 3475 
Q 2188 3584 2756 3584 
Q 3394 3584 3694 3078 
Q 3994 2572 3834 1747 
Q 3672 922 3175 415 
Q 2678 -91 2041 -91 
Q 1656 -91 1409 63 
Q 1163 213 1044 525 
L 681 -1331 
L 103 -1331 
L 697 1716 
Q 838 2438 1203 2875 
z
M 3238 1747 
Q 3359 2381 3169 2744 
Q 2978 3103 2522 3103 
Q 2066 3103 1734 2744 
Q 1403 2381 1281 1747 
Q 1156 1113 1347 750 
Q 1538 391 1994 391 
Q 2450 391 2781 750 
Q 3113 1113 3238 1747 
z
" transform="scale(0.015625)"/>
       <path id="DejaVuSans-6d" d="M 3328 2828 
Q 3544 3216 3844 3400 
Q 4144 3584 4550 3584 
Q 5097 3584 5394 3201 
Q 5691 2819 5691 2113 
L 5691 0 
L 5113 0 
L 5113 2094 
Q 5113 2597 4934 2840 
Q 4756 3084 4391 3084 
Q 3944 3084 3684 2787 
Q 3425 2491 3425 1978 
L 3425 0 
L 2847 0 
L 2847 2094 
Q 2847 2600 2669 2842 
Q 2491 3084 2119 3084 
Q 1678 3084 1418 2786 
Q 1159 2488 1159 1978 
L 1159 0 
L 581 0 
L 581 3500 
L 1159 3500 
L 1159 2956 
Q 1356 3278 1631 3431 
Q 1906 3584 2284 3584 
Q 2666 3584 2933 3390 
Q 3200 3197 3328 2828 
z
" transform="scale(0.015625)"/>
       <path id="DejaVuSans-61" d="M 2194 1759 
Q 1497 1759 1228 1600 
Q 959 1441 959 1056 
Q 959 750 1161 570 
Q 1363 391 1709 391 
Q 2188 391 2477 730 
Q 2766 1069 2766 1631 
L 2766 1759 
L 2194 1759 
z
M 3341 1997 
L 3341 0 
L 2766 0 
L 2766 531 
Q 2569 213 2275 61 
Q 1981 -91 1556 -91 
Q 1019 -91 701 211 
Q 384 513 384 1019 
Q 384 1609 779 1909 
Q 1175 2209 1959 2209 
L 2766 2209 
L 2766 2266 
Q 2766 2663 2505 2880 
Q 2244 3097 1772 3097 
Q 1472 3097 1187 3025 
Q 903 2953 641 2809 
L 641 3341 
Q 956 3463 1253 3523 
Q 1550 3584 1831 3584 
Q 2591 3584 2966 3190 
Q 3341 2797 3341 1997 
z
" transform="scale(0.015625)"/>
       <path id="DejaVuSans-78" d="M 3513 3500 
L 2247 1797 
L 3578 0 
L 2900 0 
L 1881 1375 
L 863 0 
L 184 0 
L 1544 1831 
L 300 3500 
L 978 3500 
L 1906 2253 
L 2834 3500 
L 3513 3500 
z
" transform="scale(0.015625)"/>
      </defs>
      <use xlink:href="#ArialMT-44" transform="translate(0 0.09375)"/>
      <use xlink:href="#ArialMT-65" transform="translate(72.216797 0.09375)"/>
      <use xlink:href="#ArialMT-6e" transform="translate(127.832031 0.09375)"/>
      <use xlink:href="#ArialMT-73" transform="translate(183.447266 0.09375)"/>
      <use xlink:href="#ArialMT-69" transform="translate(233.447266 0.09375)"/>
      <use xlink:href="#ArialMT-74" transform="translate(255.664062 0.09375)"/>
      <use xlink:href="#ArialMT-79" transform="translate(283.447266 0.09375)"/>
      <use xlink:href="#ArialMT-20" transform="translate(333.447266 0.09375)"/>
      <use xlink:href="#DejaVuSans-Oblique-3c1" transform="translate(361.230469 0.09375)"/>
      <use xlink:href="#DejaVuSans-2f" transform="translate(424.707031 0.09375)"/>
      <use xlink:href="#DejaVuSans-Oblique-3c1" transform="translate(458.398438 0.09375)"/>
      <use xlink:href="#DejaVuSans-6d" transform="translate(521.875 -16.3125) scale(0.7)"/>
      <use xlink:href="#DejaVuSans-61" transform="translate(590.063477 -16.3125) scale(0.7)"/>
      <use xlink:href="#DejaVuSans-78" transform="translate(632.958984 -16.3125) scale(0.7)"/>
     </g>
    </g>
   </g>
   <g id="line2d_13">
    <path d="M 36.701977 120.210203 
L 36.972074 108.953533 
L 37.242171 118.957467 
L 37.512267 116.601757 
L 37.782364 117.684958 
L 38.052461 111.60244 
L 38.322557 109.613147 
L 38.592654 113.606039 
L 38.862751 119.968454 
L 39.132847 113.658859 
L 39.402944 113.736441 
L 39.67304 114.177829 
L 39.943137 123.019244 
L 40.213234 118.648687 
L 40.48333 120.369966 
L 40.753427 112.279129 
L 41.023524 112.787422 
L 41.29362 109.165965 
L 41.563717 113.494762 
L 41.833814 111.998116 
L 42.10391 114.748469 
L 42.644103 110.341078 
L 42.9142 115.346737 
L 43.184297 114.294722 
L 43.454393 117.506632 
L 43.72449 115.613237 
L 43.994587 115.162091 
L 44.264683 113.709977 
L 44.53478 110.218836 
L 44.804877 116.603641 
L 45.074973 115.174146 
L 45.34507 112.374758 
L 45.615166 115.871617 
L 45.885263 117.889905 
L 46.15536 115.360033 
L 46.425456 115.235782 
L 46.695553 117.924652 
L 47.235746 108.777163 
L 47.77594 118.23764 
L 48.316133 111.334433 
L 48.586229 112.746247 
L 48.856326 119.403185 
L 49.126423 113.259571 
L 49.396519 114.748017 
L 49.666616 122.383957 
L 49.936713 107.780774 
L 50.206809 119.842035 
L 50.476906 116.150171 
L 50.747003 115.379511 
L 51.017099 117.61549 
L 51.287196 117.02957 
L 51.557292 113.83542 
L 51.827389 117.359882 
L 52.097486 117.27147 
L 52.637679 111.731822 
L 53.177872 115.279527 
L 53.447969 114.807464 
L 53.718065 110.936938 
L 54.258259 119.849471 
L 54.528355 115.858781 
L 54.798452 115.157191 
L 55.068549 112.37424 
L 55.338645 119.880122 
L 55.608742 116.35985 
L 55.878839 114.733908 
L 56.148935 110.091568 
L 56.689128 117.356533 
L 56.959225 110.086554 
L 57.229322 112.876266 
L 57.499418 107.95345 
L 58.039612 116.610289 
L 58.309708 115.547402 
L 58.579805 113.563856 
L 58.849902 113.497203 
L 59.119998 117.401851 
L 59.390095 118.535987 
L 59.660191 112.401866 
L 59.930288 113.924055 
L 60.470481 110.768804 
L 60.740578 116.309252 
L 61.280771 113.909 
L 61.550868 115.249005 
L 61.820965 106.94491 
L 62.091061 117.235165 
L 62.361158 112.307414 
L 62.631254 116.799995 
L 62.901351 117.491088 
L 63.171448 111.628418 
L 63.441544 116.076716 
L 63.711641 115.146211 
L 63.981738 111.90932 
L 64.251834 113.070343 
L 64.521931 117.039796 
L 65.062124 112.89209 
L 65.332221 116.959389 
L 65.602317 119.175723 
L 65.872414 113.536307 
L 66.142511 113.762279 
L 66.412607 113.299441 
L 66.682704 113.470679 
L 66.952801 117.374045 
L 67.222897 114.883455 
L 67.492994 118.886348 
L 67.763091 107.180904 
L 68.033187 112.739496 
L 68.303284 112.18051 
L 68.57338 116.665089 
L 68.843477 111.114647 
L 69.113574 113.790759 
L 69.38367 111.453588 
L 69.653767 110.932493 
L 69.923864 122.695198 
L 70.19396 111.639713 
L 70.464057 111.806946 
L 70.734154 112.675926 
L 71.00425 123.1009 
L 71.274347 114.65878 
L 71.544443 110.535589 
L 71.81454 117.022261 
L 72.084637 111.032432 
L 72.354733 118.475955 
L 72.894927 113.962198 
L 73.165023 117.447811 
L 73.43512 117.189349 
L 73.705217 117.928048 
L 73.975313 109.455415 
L 74.24541 118.7025 
L 74.515506 109.007201 
L 75.0557 117.541867 
L 75.325796 119.365888 
L 75.595893 118.362433 
L 75.86599 121.715316 
L 76.136086 111.483679 
L 76.406183 118.916167 
L 76.67628 113.733948 
L 76.946376 112.767404 
L 77.216473 109.673959 
L 77.486569 114.476447 
L 77.756666 111.019169 
L 78.026763 117.110003 
L 78.296859 114.854004 
L 78.566956 115.865597 
L 78.837053 109.190174 
L 79.377246 117.810333 
L 79.647343 111.387678 
L 79.917439 117.430866 
L 80.187536 116.394209 
L 80.457632 112.915865 
L 80.727729 112.97568 
L 80.997826 112.087545 
L 81.267922 118.358535 
L 81.538019 113.928093 
L 81.808116 114.964632 
L 82.078212 113.382876 
L 82.348309 114.838224 
L 82.618406 109.41329 
L 82.888502 114.405993 
L 83.158599 114.49786 
L 83.428695 109.187038 
L 83.698792 115.001136 
L 83.968889 116.89315 
L 84.238985 109.832912 
L 84.509082 113.486543 
L 84.779179 109.306864 
L 85.049275 116.549637 
L 85.319372 106.524085 
L 85.589469 115.106141 
L 85.859565 115.364022 
L 86.399758 109.288338 
L 86.669855 114.69304 
L 86.939952 112.116924 
L 87.210048 113.156368 
L 87.480145 106.144233 
L 87.750242 116.630003 
L 88.020338 111.243418 
L 88.290435 115.630101 
L 88.560531 115.230342 
L 88.830628 118.438244 
L 89.100725 108.879394 
L 89.370821 114.577364 
L 89.640918 111.877579 
L 89.911015 114.922513 
L 90.181111 114.952203 
L 90.451208 110.464582 
L 90.451208 110.464582 
" clip-path="url(#p1311fa2543)" style="fill: none; stroke: #000000; stroke-opacity: 0.166667; stroke-linecap: square"/>
   </g>
   <g id="line2d_14">
    <path d="M 36.701977 113.167464 
L 39.402944 113.9932 
L 48.586229 117.037506 
L 51.287196 117.578552 
L 53.718065 117.845635 
L 56.148935 117.890575 
L 58.579805 117.704237 
L 61.010675 117.279862 
L 63.441544 116.617518 
L 66.142511 115.624604 
L 69.653767 114.04995 
L 74.24541 111.992755 
L 76.67628 111.161424 
L 78.837053 110.67521 
L 80.727729 110.475826 
L 82.618406 110.497251 
L 84.509082 110.735211 
L 86.669855 111.249364 
L 89.100725 112.077434 
L 90.451208 112.616465 
L 90.451208 112.616465 
" clip-path="url(#p1311fa2543)" style="fill: none; stroke: #000000; stroke-opacity: 0.333333; stroke-linecap: square"/>
   </g>
   <g id="line2d_15">
    <path d="M 36.701977 109.372821 
L 38.052461 110.670597 
L 39.67304 112.607011 
L 45.074973 119.52139 
L 46.695553 121.056995 
L 48.316133 122.250879 
L 49.936713 123.149787 
L 51.827389 123.906249 
L 53.988162 124.488451 
L 56.419032 124.887812 
L 59.119998 125.086066 
L 61.550868 125.033737 
L 63.441544 124.767068 
L 64.792028 124.372349 
L 65.872414 123.860723 
L 66.952801 123.089778 
L 67.763091 122.276806 
L 68.57338 121.203441 
L 69.38367 119.818619 
L 70.464057 117.438929 
L 71.81454 113.71383 
L 74.24541 106.698722 
L 75.325796 104.268641 
L 76.406183 102.44535 
L 77.486569 101.162692 
L 78.566956 100.305988 
L 79.647343 99.76707 
L 80.727729 99.463968 
L 82.078212 99.335609 
L 83.428695 99.433037 
L 84.779179 99.737633 
L 86.129662 100.261382 
L 87.480145 101.041196 
L 88.830628 102.133018 
L 89.911015 103.273377 
L 90.451208 103.941781 
L 90.451208 103.941781 
" clip-path="url(#p1311fa2543)" style="fill: none; stroke: #000000; stroke-opacity: 0.5; stroke-linecap: square"/>
   </g>
   <g id="line2d_16">
    <path d="M 36.701977 111.463285 
L 38.322557 113.817621 
L 42.10391 119.47392 
L 43.454393 121.079974 
L 44.804877 122.377248 
L 46.15536 123.390173 
L 47.77594 124.297303 
L 49.396519 124.949707 
L 51.287196 125.48476 
L 53.718065 125.938001 
L 56.959225 126.293606 
L 60.740578 126.472766 
L 63.441544 126.403974 
L 65.062124 126.176273 
L 66.142511 125.850806 
L 66.952801 125.44259 
L 67.763091 124.809628 
L 68.57338 123.83761 
L 69.38367 122.374468 
L 70.19396 120.255249 
L 71.00425 117.37894 
L 72.084637 112.554452 
L 73.705217 105.161543 
L 74.515506 102.300473 
L 75.325796 100.177555 
L 76.136086 98.689803 
L 76.946376 97.678461 
L 77.756666 96.998983 
L 78.837053 96.426447 
L 80.187536 96.026258 
L 81.808116 95.79106 
L 84.238985 95.68513 
L 86.939952 95.785782 
L 89.100725 96.083514 
L 90.451208 96.462858 
L 90.451208 96.462858 
" clip-path="url(#p1311fa2543)" style="fill: none; stroke: #000000; stroke-opacity: 0.666667; stroke-linecap: square"/>
   </g>
   <g id="patch_6">
    <path d="M 31.566929 127.252913 
L 31.566929 95.074016 
" style="fill: none; stroke: #000000; stroke-width: 0.8; stroke-linejoin: miter; stroke-linecap: square"/>
   </g>
   <g id="patch_7">
    <path d="M 36.566929 127.252913 
L 90.586256 127.252913 
" style="fill: none; stroke: #000000; stroke-width: 0.8; stroke-linejoin: miter; stroke-linecap: square"/>
   </g>
  </g>
  <g id="axes_4">
   <g id="patch_8">
    <path d="M 104.99141 127.252913 
L 195.023622 127.252913 
L 195.023622 95.074016 
L 104.99141 95.074016 
z
" style="fill: #ffffff"/>
   </g>
   <g id="matplotlib.axis_5">
    <g id="xtick_8">
     <g id="line2d_17">
      <g>
       <use xlink:href="#mc3f13797a2" x="104.99141" y="127.252913" style="stroke: #000000; stroke-width: 0.8"/>
      </g>
     </g>
     <g id="text_16">
      <!-- 0 -->
      <g transform="translate(102.767035 139.979163) scale(0.08 -0.08)">
       <use xlink:href="#ArialMT-30"/>
      </g>
     </g>
    </g>
    <g id="xtick_9">
     <g id="line2d_18">
      <g>
       <use xlink:href="#mc3f13797a2" x="195.023622" y="127.252913" style="stroke: #000000; stroke-width: 0.8"/>
      </g>
     </g>
     <g id="text_17">
      <!-- 5 -->
      <g transform="translate(192.799247 139.979163) scale(0.08 -0.08)">
       <defs>
        <path id="ArialMT-35" d="M 266 1200 
L 856 1250 
Q 922 819 1161 601 
Q 1400 384 1738 384 
Q 2144 384 2425 690 
Q 2706 997 2706 1503 
Q 2706 1984 2436 2262 
Q 2166 2541 1728 2541 
Q 1456 2541 1237 2417 
Q 1019 2294 894 2097 
L 366 2166 
L 809 4519 
L 3088 4519 
L 3088 3981 
L 1259 3981 
L 1013 2750 
Q 1425 3038 1878 3038 
Q 2478 3038 2890 2622 
Q 3303 2206 3303 1553 
Q 3303 931 2941 478 
Q 2500 -78 1738 -78 
Q 1113 -78 717 272 
Q 322 622 266 1200 
z
" transform="scale(0.015625)"/>
       </defs>
       <use xlink:href="#ArialMT-35"/>
      </g>
     </g>
    </g>
    <g id="text_18">
     <!-- Position $x/\sigma$ -->
     <g transform="translate(128.407516 144.295413) scale(0.08 -0.08)">
      <use xlink:href="#ArialMT-50" transform="translate(0 0.09375)"/>
      <use xlink:href="#ArialMT-6f" transform="translate(66.699219 0.09375)"/>
      <use xlink:href="#ArialMT-73" transform="translate(122.314453 0.09375)"/>
      <use xlink:href="#ArialMT-69" transform="translate(172.314453 0.09375)"/>
      <use xlink:href="#ArialMT-74" transform="translate(194.53125 0.09375)"/>
      <use xlink:href="#ArialMT-69" transform="translate(222.314453 0.09375)"/>
      <use xlink:href="#ArialMT-6f" transform="translate(244.53125 0.09375)"/>
      <use xlink:href="#ArialMT-6e" transform="translate(300.146484 0.09375)"/>
      <use xlink:href="#ArialMT-20" transform="translate(355.761719 0.09375)"/>
      <use xlink:href="#DejaVuSans-Oblique-78" transform="translate(383.544922 0.09375)"/>
      <use xlink:href="#DejaVuSans-2f" transform="translate(442.724609 0.09375)"/>
      <use xlink:href="#DejaVuSans-Oblique-3c3" transform="translate(476.416016 0.09375)"/>
     </g>
    </g>
   </g>
   <g id="matplotlib.axis_6"/>
   <g id="line2d_19">
    <path d="M 105.216491 112.226413 
L 105.666652 114.216152 
L 106.116813 114.068018 
L 106.566974 109.774594 
L 107.017135 113.352128 
L 107.467296 115.291919 
L 107.917457 111.232289 
L 108.367618 113.64623 
L 108.817779 112.59738 
L 109.26794 119.460335 
L 109.718101 111.557478 
L 110.168262 117.753924 
L 110.618423 115.170107 
L 111.068584 116.09592 
L 111.968907 106.943987 
L 112.419068 113.202583 
L 112.869229 113.360727 
L 113.31939 113.005844 
L 113.769551 118.328306 
L 114.219712 114.96232 
L 114.669873 107.819978 
L 115.120034 114.361499 
L 115.570195 112.18169 
L 116.020356 116.348577 
L 116.470517 110.974221 
L 116.920678 116.286661 
L 117.370839 116.301517 
L 117.821 115.413916 
L 118.271161 115.386223 
L 118.721322 112.764885 
L 119.171484 118.334393 
L 119.621645 114.316333 
L 120.071806 114.311552 
L 120.521967 119.267894 
L 120.972128 108.419239 
L 121.422289 119.698727 
L 121.87245 106.191246 
L 122.772772 112.680814 
L 123.222933 114.232854 
L 123.673094 107.158406 
L 124.573416 120.524451 
L 125.023577 110.531632 
L 125.473738 115.089539 
L 125.923899 112.219548 
L 126.37406 118.468904 
L 126.824222 118.72026 
L 127.274383 114.528235 
L 127.724544 114.220405 
L 128.174705 115.031276 
L 128.624866 118.406503 
L 129.075027 116.612586 
L 129.525188 118.422293 
L 129.975349 112.518329 
L 130.42551 113.863531 
L 130.875671 114.079897 
L 131.325832 113.765121 
L 131.775993 112.379829 
L 132.226154 112.524168 
L 132.676315 115.152397 
L 133.126476 120.786971 
L 133.576637 118.315895 
L 134.026798 116.828536 
L 134.47696 115.80462 
L 134.927121 115.589443 
L 135.377282 116.225931 
L 135.827443 114.588659 
L 136.277604 113.410635 
L 136.727765 113.209949 
L 137.177926 118.124725 
L 137.628087 111.562896 
L 138.078248 114.984758 
L 138.528409 111.860583 
L 138.97857 118.71501 
L 139.428731 112.348862 
L 139.878892 110.157852 
L 140.329053 114.069408 
L 140.779214 120.552444 
L 141.229375 120.120355 
L 141.679537 113.2136 
L 142.129698 116.106124 
L 142.579859 117.404104 
L 143.03002 114.875903 
L 143.480181 113.628678 
L 143.930342 118.258971 
L 144.380503 118.111646 
L 144.830664 114.699522 
L 145.280825 107.110639 
L 145.730986 110.865665 
L 146.181147 111.686785 
L 146.631308 116.054129 
L 147.081469 110.308829 
L 147.981791 120.45796 
L 148.431952 112.096399 
L 148.882113 111.919091 
L 149.332275 117.284632 
L 149.782436 114.600163 
L 150.232597 115.863656 
L 150.682758 120.671016 
L 151.132919 112.61386 
L 151.58308 113.480781 
L 152.033241 114.696852 
L 152.483402 113.745234 
L 152.933563 116.422049 
L 153.833885 114.565356 
L 154.284046 118.449823 
L 154.734207 113.867995 
L 155.184368 113.65645 
L 155.634529 114.516524 
L 156.08469 118.217146 
L 156.534851 113.275233 
L 156.985013 114.677879 
L 157.435174 111.365446 
L 158.335496 118.949146 
L 158.785657 113.491028 
L 159.235818 114.381598 
L 159.685979 115.926123 
L 160.13614 118.357431 
L 161.036462 110.798051 
L 161.486623 115.865884 
L 161.936784 116.539648 
L 162.386945 114.357871 
L 162.837106 117.158251 
L 163.287267 118.363475 
L 164.187589 114.863999 
L 164.637751 118.332198 
L 165.087912 111.007979 
L 165.538073 113.01536 
L 165.988234 117.154401 
L 166.438395 109.920743 
L 166.888556 113.121798 
L 167.338717 112.789669 
L 167.788878 111.297593 
L 168.239039 116.060441 
L 168.6892 114.26017 
L 169.139361 113.411878 
L 169.589522 115.958135 
L 170.039683 115.5368 
L 170.489844 114.863764 
L 170.940005 113.783395 
L 171.390166 115.582473 
L 171.840327 113.624258 
L 172.290489 115.27573 
L 172.74065 115.599447 
L 173.190811 121.741677 
L 173.640972 110.329443 
L 174.091133 115.873581 
L 174.991455 108.748109 
L 175.441616 114.287966 
L 175.891777 113.198797 
L 176.341938 113.674269 
L 176.792099 115.430255 
L 177.24226 111.743961 
L 177.692421 117.609034 
L 178.142582 113.756663 
L 178.592743 115.823922 
L 179.042904 115.126911 
L 179.493065 108.714326 
L 179.943227 114.266491 
L 180.393388 114.878233 
L 180.843549 115.865878 
L 181.29371 110.108938 
L 181.743871 114.912706 
L 182.194032 117.876783 
L 182.644193 114.587797 
L 183.094354 113.404992 
L 183.544515 108.959044 
L 183.994676 117.665064 
L 184.444837 114.216088 
L 184.894998 112.908745 
L 185.345159 116.027675 
L 185.79532 113.827267 
L 186.245481 114.12718 
L 186.695642 116.367411 
L 187.145804 116.744531 
L 187.595965 116.812067 
L 188.046126 109.434588 
L 188.496287 117.181109 
L 188.946448 111.341746 
L 189.84677 116.660386 
L 190.296931 115.999953 
L 190.747092 115.893082 
L 191.647414 114.22306 
L 192.097575 110.371212 
L 192.547736 116.457103 
L 192.997897 112.300213 
L 193.448058 110.241072 
L 193.898219 116.466803 
L 194.34838 113.931424 
L 194.798542 109.475171 
L 194.798542 109.475171 
" clip-path="url(#p959ef0b2ea)" style="fill: none; stroke: #000000; stroke-opacity: 0.166667; stroke-linecap: square"/>
   </g>
   <g id="line2d_20">
    <path d="M 105.216491 108.443739 
L 107.017135 107.391265 
L 108.367618 106.814303 
L 109.718101 106.424147 
L 111.068584 106.221385 
L 112.419068 106.207363 
L 113.769551 106.38631 
L 115.120034 106.765483 
L 116.470517 107.353035 
L 117.821 108.153251 
L 119.621645 109.536644 
L 121.87245 111.661592 
L 125.923899 115.65099 
L 127.724544 117.103197 
L 129.525188 118.256776 
L 131.325832 119.129008 
L 133.126476 119.767232 
L 135.377282 120.314657 
L 138.078248 120.713361 
L 141.229375 120.944883 
L 145.280825 121.006626 
L 149.782436 120.856731 
L 154.284046 120.491096 
L 157.885335 119.996337 
L 161.036462 119.344326 
L 163.737428 118.551319 
L 165.988234 117.673544 
L 168.239039 116.565674 
L 170.940005 114.939636 
L 178.592743 110.001215 
L 180.393388 109.183501 
L 182.194032 108.593158 
L 183.994676 108.24132 
L 185.79532 108.129423 
L 187.595965 108.255051 
L 189.396609 108.613865 
L 191.197253 109.197427 
L 192.997897 109.98791 
L 194.798542 110.951816 
L 194.798542 110.951816 
" clip-path="url(#p959ef0b2ea)" style="fill: none; stroke: #000000; stroke-opacity: 0.333333; stroke-linecap: square"/>
   </g>
   <g id="line2d_21">
    <path d="M 105.216491 97.283271 
L 107.017135 97.027957 
L 109.718101 96.882053 
L 112.419068 96.923284 
L 114.219712 97.105493 
L 115.570195 97.420971 
L 116.470517 97.798819 
L 117.370839 98.413543 
L 118.271161 99.416927 
L 119.171484 101.03347 
L 120.071806 103.525197 
L 120.972128 107.030613 
L 123.673094 119.150314 
L 124.573416 121.67862 
L 125.473738 123.290427 
L 126.37406 124.260978 
L 127.274383 124.832597 
L 128.174705 125.16894 
L 129.525188 125.43682 
L 131.775993 125.610889 
L 136.727765 125.688298 
L 163.737428 125.674763 
L 168.239039 125.51623 
L 170.039683 125.238669 
L 170.940005 124.94738 
L 171.840327 124.450398 
L 172.74065 123.599761 
L 173.640972 122.166459 
L 174.541294 119.864381 
L 175.441616 116.503671 
L 178.592743 102.727599 
L 179.493065 100.538602 
L 180.393388 99.160762 
L 181.29371 98.324973 
L 182.194032 97.824432 
L 183.544515 97.426752 
L 185.345159 97.22411 
L 187.595965 97.210637 
L 190.296931 97.409504 
L 192.547736 97.802921 
L 193.898219 98.217284 
L 194.798542 98.617246 
L 194.798542 98.617246 
" clip-path="url(#p959ef0b2ea)" style="fill: none; stroke: #000000; stroke-opacity: 0.5; stroke-linecap: square"/>
   </g>
   <g id="line2d_22">
    <path d="M 105.216491 96.727198 
L 108.367618 96.603549 
L 111.968907 96.673442 
L 114.219712 96.901415 
L 115.570195 97.223768 
L 116.470517 97.605608 
L 117.370839 98.228127 
L 118.271161 99.251498 
L 119.171484 100.915354 
L 120.071806 103.500681 
L 120.972128 107.149719 
L 123.222933 117.86751 
L 124.123255 120.891454 
L 125.023577 122.868079 
L 125.923899 124.06389 
L 126.824222 124.762808 
L 127.724544 125.168381 
L 129.075027 125.485196 
L 131.325832 125.685671 
L 135.827443 125.772366 
L 157.885335 125.787821 
L 167.788878 125.682778 
L 170.039683 125.457664 
L 171.390166 125.086521 
L 172.290489 124.598857 
L 173.190811 123.743516 
L 173.640972 123.10254 
L 174.091133 122.266945 
L 174.991455 119.844578 
L 175.891777 116.26128 
L 178.592743 103.407734 
L 179.493065 100.761211 
L 180.393388 99.088537 
L 181.29371 98.080459 
L 182.194032 97.479522 
L 183.094354 97.117826 
L 184.444837 96.818436 
L 186.695642 96.610552 
L 190.296931 96.536693 
L 194.34838 96.647446 
L 194.798542 96.680754 
L 194.798542 96.680754 
" clip-path="url(#p959ef0b2ea)" style="fill: none; stroke: #000000; stroke-opacity: 0.666667; stroke-linecap: square"/>
   </g>
   <g id="patch_9">
    <path d="M 104.99141 127.252913 
L 195.023622 127.252913 
" style="fill: none; stroke: #000000; stroke-width: 0.8; stroke-linejoin: miter; stroke-linecap: square"/>
   </g>
   <g id="legend_1">
    <g id="text_19">
     <!-- Time $t/\tau$ -->
     <g transform="translate(203.141903 95.740183) scale(0.06 -0.06)">
      <defs>
       <path id="ArialMT-54" d="M 1659 0 
L 1659 4041 
L 150 4041 
L 150 4581 
L 3781 4581 
L 3781 4041 
L 2266 4041 
L 2266 0 
L 1659 0 
z
" transform="scale(0.015625)"/>
       <path id="ArialMT-6d" d="M 422 0 
L 422 3319 
L 925 3319 
L 925 2853 
Q 1081 3097 1340 3245 
Q 1600 3394 1931 3394 
Q 2300 3394 2536 3241 
Q 2772 3088 2869 2813 
Q 3263 3394 3894 3394 
Q 4388 3394 4653 3120 
Q 4919 2847 4919 2278 
L 4919 0 
L 4359 0 
L 4359 2091 
Q 4359 2428 4304 2576 
Q 4250 2725 4106 2815 
Q 3963 2906 3769 2906 
Q 3419 2906 3187 2673 
Q 2956 2441 2956 1928 
L 2956 0 
L 2394 0 
L 2394 2156 
Q 2394 2531 2256 2718 
Q 2119 2906 1806 2906 
Q 1569 2906 1367 2781 
Q 1166 2656 1075 2415 
Q 984 2175 984 1722 
L 984 0 
L 422 0 
z
" transform="scale(0.015625)"/>
       <path id="DejaVuSans-Oblique-74" d="M 2706 3500 
L 2619 3053 
L 1472 3053 
L 1100 1153 
Q 1081 1047 1072 975 
Q 1063 903 1063 863 
Q 1063 663 1183 572 
Q 1303 481 1569 481 
L 2150 481 
L 2053 0 
L 1503 0 
Q 991 0 739 200 
Q 488 400 488 806 
Q 488 878 497 964 
Q 506 1050 525 1153 
L 897 3053 
L 409 3053 
L 500 3500 
L 978 3500 
L 1172 4494 
L 1747 4494 
L 1556 3500 
L 2706 3500 
z
" transform="scale(0.015625)"/>
       <path id="DejaVuSans-Oblique-3c4" d="M 2103 638 
Q 2188 488 2525 488 
L 2800 488 
L 2706 0 
L 2363 0 
Q 1800 0 1600 300 
Q 1403 606 1534 1269 
L 1856 2925 
L 541 2925 
L 653 3500 
L 3881 3500 
L 3769 2925 
L 2444 2925 
L 2113 1234 
Q 2025 781 2103 638 
z
" transform="scale(0.015625)"/>
      </defs>
      <use xlink:href="#ArialMT-54" transform="translate(0 0.09375)"/>
      <use xlink:href="#ArialMT-69" transform="translate(61.083984 0.09375)"/>
      <use xlink:href="#ArialMT-6d" transform="translate(83.300781 0.09375)"/>
      <use xlink:href="#ArialMT-65" transform="translate(166.601562 0.09375)"/>
      <use xlink:href="#ArialMT-20" transform="translate(222.216797 0.09375)"/>
      <use xlink:href="#DejaVuSans-Oblique-74" transform="translate(250 0.09375)"/>
      <use xlink:href="#DejaVuSans-2f" transform="translate(289.208984 0.09375)"/>
      <use xlink:href="#DejaVuSans-Oblique-3c4" transform="translate(322.900391 0.09375)"/>
     </g>
    </g>
    <g id="line2d_23">
     <path d="M 200.423622 102.127371 
L 206.423622 102.127371 
L 212.423622 102.127371 
" style="fill: none; stroke: #000000; stroke-opacity: 0.166667; stroke-linecap: square"/>
    </g>
    <g id="text_20">
     <!-- 0.00 -->
     <g transform="translate(217.223622 104.227371) scale(0.06 -0.06)">
      <defs>
       <path id="ArialMT-2e" d="M 581 0 
L 581 641 
L 1222 641 
L 1222 0 
L 581 0 
z
" transform="scale(0.015625)"/>
      </defs>
      <use xlink:href="#ArialMT-30"/>
      <use xlink:href="#ArialMT-2e" x="55.615234"/>
      <use xlink:href="#ArialMT-30" x="83.398438"/>
      <use xlink:href="#ArialMT-30" x="139.013672"/>
     </g>
    </g>
    <g id="line2d_24">
     <path d="M 200.423622 110.614558 
L 206.423622 110.614558 
L 212.423622 110.614558 
" style="fill: none; stroke: #000000; stroke-opacity: 0.333333; stroke-linecap: square"/>
    </g>
    <g id="text_21">
     <!-- 0.67 -->
     <g transform="translate(217.223622 112.714558) scale(0.06 -0.06)">
      <defs>
       <path id="ArialMT-36" d="M 3184 3459 
L 2625 3416 
Q 2550 3747 2413 3897 
Q 2184 4138 1850 4138 
Q 1581 4138 1378 3988 
Q 1113 3794 959 3422 
Q 806 3050 800 2363 
Q 1003 2672 1297 2822 
Q 1591 2972 1913 2972 
Q 2475 2972 2870 2558 
Q 3266 2144 3266 1488 
Q 3266 1056 3080 686 
Q 2894 316 2569 119 
Q 2244 -78 1831 -78 
Q 1128 -78 684 439 
Q 241 956 241 2144 
Q 241 3472 731 4075 
Q 1159 4600 1884 4600 
Q 2425 4600 2770 4297 
Q 3116 3994 3184 3459 
z
M 888 1484 
Q 888 1194 1011 928 
Q 1134 663 1356 523 
Q 1578 384 1822 384 
Q 2178 384 2434 671 
Q 2691 959 2691 1453 
Q 2691 1928 2437 2201 
Q 2184 2475 1800 2475 
Q 1419 2475 1153 2201 
Q 888 1928 888 1484 
z
" transform="scale(0.015625)"/>
       <path id="ArialMT-37" d="M 303 3981 
L 303 4522 
L 3269 4522 
L 3269 4084 
Q 2831 3619 2401 2847 
Q 1972 2075 1738 1259 
Q 1569 684 1522 0 
L 944 0 
Q 953 541 1156 1306 
Q 1359 2072 1739 2783 
Q 2119 3494 2547 3981 
L 303 3981 
z
" transform="scale(0.015625)"/>
      </defs>
      <use xlink:href="#ArialMT-30"/>
      <use xlink:href="#ArialMT-2e" x="55.615234"/>
      <use xlink:href="#ArialMT-36" x="83.398438"/>
      <use xlink:href="#ArialMT-37" x="139.013672"/>
     </g>
    </g>
    <g id="line2d_25">
     <path d="M 200.423622 119.101746 
L 206.423622 119.101746 
L 212.423622 119.101746 
" style="fill: none; stroke: #000000; stroke-opacity: 0.5; stroke-linecap: square"/>
    </g>
    <g id="text_22">
     <!-- 1.33 -->
     <g transform="translate(217.223622 121.201746) scale(0.06 -0.06)">
      <use xlink:href="#ArialMT-31"/>
      <use xlink:href="#ArialMT-2e" x="55.615234"/>
      <use xlink:href="#ArialMT-33" x="83.398438"/>
      <use xlink:href="#ArialMT-33" x="139.013672"/>
     </g>
    </g>
    <g id="line2d_26">
     <path d="M 200.423622 127.588933 
L 206.423622 127.588933 
L 212.423622 127.588933 
" style="fill: none; stroke: #000000; stroke-opacity: 0.666667; stroke-linecap: square"/>
    </g>
    <g id="text_23">
     <!-- 2.00 -->
     <g transform="translate(217.223622 129.688933) scale(0.06 -0.06)">
      <use xlink:href="#ArialMT-32"/>
      <use xlink:href="#ArialMT-2e" x="55.615234"/>
      <use xlink:href="#ArialMT-30" x="83.398438"/>
      <use xlink:href="#ArialMT-30" x="139.013672"/>
     </g>
    </g>
   </g>
  </g>
  <g id="text_24">
   <!-- (a) -->
   <g transform="translate(4.863056 8.776063) scale(0.08 -0.08)">
    <defs>
     <path id="ArialMT-28" d="M 1497 -1347 
Q 1031 -759 709 28 
Q 388 816 388 1659 
Q 388 2403 628 3084 
Q 909 3875 1497 4659 
L 1900 4659 
Q 1522 4009 1400 3731 
Q 1209 3300 1100 2831 
Q 966 2247 966 1656 
Q 966 153 1900 -1347 
L 1497 -1347 
z
" transform="scale(0.015625)"/>
     <path id="ArialMT-29" d="M 791 -1347 
L 388 -1347 
Q 1322 153 1322 1656 
Q 1322 2244 1188 2822 
Q 1081 3291 891 3722 
Q 769 4003 388 4659 
L 791 4659 
Q 1378 3875 1659 3084 
Q 1900 2403 1900 1659 
Q 1900 816 1576 28 
Q 1253 -759 791 -1347 
z
" transform="scale(0.015625)"/>
    </defs>
    <use xlink:href="#ArialMT-28"/>
    <use xlink:href="#ArialMT-61" x="33.300781"/>
    <use xlink:href="#ArialMT-29" x="88.916016"/>
   </g>
  </g>
  <g id="text_25">
   <!-- (b) -->
   <g transform="translate(117.001639 8.776063) scale(0.08 -0.08)">
    <defs>
     <path id="ArialMT-62" d="M 941 0 
L 419 0 
L 419 4581 
L 981 4581 
L 981 2947 
Q 1338 3394 1891 3394 
Q 2197 3394 2470 3270 
Q 2744 3147 2920 2923 
Q 3097 2700 3197 2384 
Q 3297 2069 3297 1709 
Q 3297 856 2875 390 
Q 2453 -75 1863 -75 
Q 1275 -75 941 416 
L 941 0 
z
M 934 1684 
Q 934 1088 1097 822 
Q 1363 388 1816 388 
Q 2184 388 2453 708 
Q 2722 1028 2722 1663 
Q 2722 2313 2464 2622 
Q 2206 2931 1841 2931 
Q 1472 2931 1203 2611 
Q 934 2291 934 1684 
z
" transform="scale(0.015625)"/>
    </defs>
    <use xlink:href="#ArialMT-28"/>
    <use xlink:href="#ArialMT-62" x="33.300781"/>
    <use xlink:href="#ArialMT-29" x="88.916016"/>
   </g>
  </g>
  <g id="text_26">
   <!-- (c) -->
   <g transform="translate(5.087431 80.447244) scale(0.08 -0.08)">
    <use xlink:href="#ArialMT-28"/>
    <use xlink:href="#ArialMT-63" x="33.300781"/>
    <use xlink:href="#ArialMT-29" x="83.300781"/>
   </g>
  </g>
 </g>
 <defs>
  <clipPath id="p2f8f4a1b90">
   <rect x="167.989468" y="7.313386" width="68.476674" height="55.581732"/>
  </clipPath>
  <clipPath id="p1311fa2543">
   <rect x="36.566929" y="95.074016" width="54.019327" height="32.178898"/>
  </clipPath>
  <clipPath id="p959ef0b2ea">
   <rect x="104.99141" y="95.074016" width="90.032212" height="32.178898"/>
  </clipPath>
 </defs>
</svg>
