<?xml version="1.0" encoding="utf-8" standalone="no"?>
<!DOCTYPE svg PUBLIC "-//W3C//DTD SVG 1.1//EN"
  "http://www.w3.org/Graphics/SVG/1.1/DTD/svg11.dtd">
<svg xmlns:xlink="http://www.w3.org/1999/xlink" width="487.559055pt" height="195.023622pt" viewBox="0 0 487.559055 195.023622" xmlns="http://www.w3.org/2000/svg" version="1.1">
 <metadata>
  <rdf:RDF xmlns:dc="http://purl.org/dc/elements/1.1/" xmlns:cc="http://creativecommons.org/ns#" xmlns:rdf="http://www.w3.org/1999/02/22-rdf-syntax-ns#">
   <cc:Work>
    <dc:type rdf:resource="http://purl.org/dc/dcmitype/StillImage"/>
    <dc:date>2025-09-09T15:15:07.243740</dc:date>
    <dc:format>image/svg+xml</dc:format>
    <dc:creator>
     <cc:Agent>
      <dc:title>Matplotlib v3.8.4, https://matplotlib.org/</dc:title>
     </cc:Agent>
    </dc:creator>
   </cc:Work>
  </rdf:RDF>
 </metadata>
 <defs>
  <style type="text/css">*{stroke-linejoin: round; stroke-linecap: butt}</style>
 </defs>
 <g id="figure_1">
  <g id="patch_1">
   <path d="M 0 195.023622 
L 487.559055 195.023622 
L 487.559055 0 
L 0 0 
z
" style="fill: #ffffff"/>
  </g>
  <g id="axes_1">
   <g id="patch_2">
    <path d="M 60.944882 165.770079 
L 228.543307 165.770079 
L 228.543307 19.502362 
L 60.944882 19.502362 
z
" style="fill: #ffffff"/>
   </g>
   <g id="matplotlib.axis_1">
    <g id="xtick_1">
     <g id="line2d_1">
      <defs>
       <path id="m2a88a7de5f" d="M 0 0 
L 0 3.5 
" style="stroke: #000000; stroke-width: 0.8"/>
      </defs>
      <g>
       <use xlink:href="#m2a88a7de5f" x="60.944882" y="165.770079" style="stroke: #000000; stroke-width: 0.8"/>
      </g>
     </g>
     <g id="text_1">
      <!-- 0 -->
      <g transform="translate(58.720507 178.496329) scale(0.08 -0.08)">
       <defs>
        <path id="ArialMT-30" d="M 266 2259 
Q 266 3072 433 3567 
Q 600 4063 929 4331 
Q 1259 4600 1759 4600 
Q 2128 4600 2406 4451 
Q 2684 4303 2865 4023 
Q 3047 3744 3150 3342 
Q 3253 2941 3253 2259 
Q 3253 1453 3087 958 
Q 2922 463 2592 192 
Q 2263 -78 1759 -78 
Q 1097 -78 719 397 
Q 266 969 266 2259 
z
M 844 2259 
Q 844 1131 1108 757 
Q 1372 384 1759 384 
Q 2147 384 2411 759 
Q 2675 1134 2675 2259 
Q 2675 3391 2411 3762 
Q 2147 4134 1753 4134 
Q 1366 4134 1134 3806 
Q 844 3388 844 2259 
z
" transform="scale(0.015625)"/>
       </defs>
       <use xlink:href="#ArialMT-30"/>
      </g>
     </g>
    </g>
    <g id="xtick_2">
     <g id="line2d_2">
      <g>
       <use xlink:href="#m2a88a7de5f" x="108.830146" y="165.770079" style="stroke: #000000; stroke-width: 0.8"/>
      </g>
     </g>
     <g id="text_2">
      <!-- 2 -->
      <g transform="translate(106.605771 178.496329) scale(0.08 -0.08)">
       <defs>
        <path id="ArialMT-32" d="M 3222 541 
L 3222 0 
L 194 0 
Q 188 203 259 391 
Q 375 700 629 1000 
Q 884 1300 1366 1694 
Q 2113 2306 2375 2664 
Q 2638 3022 2638 3341 
Q 2638 3675 2398 3904 
Q 2159 4134 1775 4134 
Q 1369 4134 1125 3890 
Q 881 3647 878 3216 
L 300 3275 
Q 359 3922 746 4261 
Q 1134 4600 1788 4600 
Q 2447 4600 2831 4234 
Q 3216 3869 3216 3328 
Q 3216 3053 3103 2787 
Q 2991 2522 2730 2228 
Q 2469 1934 1863 1422 
Q 1356 997 1212 845 
Q 1069 694 975 541 
L 3222 541 
z
" transform="scale(0.015625)"/>
       </defs>
       <use xlink:href="#ArialMT-32"/>
      </g>
     </g>
    </g>
    <g id="xtick_3">
     <g id="line2d_3">
      <g>
       <use xlink:href="#m2a88a7de5f" x="156.715411" y="165.770079" style="stroke: #000000; stroke-width: 0.8"/>
      </g>
     </g>
     <g id="text_3">
      <!-- 4 -->
      <g transform="translate(154.491036 178.496329) scale(0.08 -0.08)">
       <defs>
        <path id="ArialMT-34" d="M 2069 0 
L 2069 1097 
L 81 1097 
L 81 1613 
L 2172 4581 
L 2631 4581 
L 2631 1613 
L 3250 1613 
L 3250 1097 
L 2631 1097 
L 2631 0 
L 2069 0 
z
M 2069 1613 
L 2069 3678 
L 634 1613 
L 2069 1613 
z
" transform="scale(0.015625)"/>
       </defs>
       <use xlink:href="#ArialMT-34"/>
      </g>
     </g>
    </g>
    <g id="xtick_4">
     <g id="line2d_4">
      <g>
       <use xlink:href="#m2a88a7de5f" x="204.600675" y="165.770079" style="stroke: #000000; stroke-width: 0.8"/>
      </g>
     </g>
     <g id="text_4">
      <!-- 6 -->
      <g transform="translate(202.3763 178.496329) scale(0.08 -0.08)">
       <defs>
        <path id="ArialMT-36" d="M 3184 3459 
L 2625 3416 
Q 2550 3747 2413 3897 
Q 2184 4138 1850 4138 
Q 1581 4138 1378 3988 
Q 1113 3794 959 3422 
Q 806 3050 800 2363 
Q 1003 2672 1297 2822 
Q 1591 2972 1913 2972 
Q 2475 2972 2870 2558 
Q 3266 2144 3266 1488 
Q 3266 1056 3080 686 
Q 2894 316 2569 119 
Q 2244 -78 1831 -78 
Q 1128 -78 684 439 
Q 241 956 241 2144 
Q 241 3472 731 4075 
Q 1159 4600 1884 4600 
Q 2425 4600 2770 4297 
Q 3116 3994 3184 3459 
z
M 888 1484 
Q 888 1194 1011 928 
Q 1134 663 1356 523 
Q 1578 384 1822 384 
Q 2178 384 2434 671 
Q 2691 959 2691 1453 
Q 2691 1928 2437 2201 
Q 2184 2475 1800 2475 
Q 1419 2475 1153 2201 
Q 888 1928 888 1484 
z
" transform="scale(0.015625)"/>
       </defs>
       <use xlink:href="#ArialMT-36"/>
      </g>
     </g>
    </g>
    <g id="text_5">
     <!-- System size $\ell$ -->
     <g transform="translate(120.384094 190.086329) scale(0.08 -0.08)">
      <defs>
       <path id="ArialMT-53" d="M 288 1472 
L 859 1522 
Q 900 1178 1048 958 
Q 1197 738 1509 602 
Q 1822 466 2213 466 
Q 2559 466 2825 569 
Q 3091 672 3220 851 
Q 3350 1031 3350 1244 
Q 3350 1459 3225 1620 
Q 3100 1781 2813 1891 
Q 2628 1963 1997 2114 
Q 1366 2266 1113 2400 
Q 784 2572 623 2826 
Q 463 3081 463 3397 
Q 463 3744 659 4045 
Q 856 4347 1234 4503 
Q 1613 4659 2075 4659 
Q 2584 4659 2973 4495 
Q 3363 4331 3572 4012 
Q 3781 3694 3797 3291 
L 3216 3247 
Q 3169 3681 2898 3903 
Q 2628 4125 2100 4125 
Q 1550 4125 1298 3923 
Q 1047 3722 1047 3438 
Q 1047 3191 1225 3031 
Q 1400 2872 2139 2705 
Q 2878 2538 3153 2413 
Q 3553 2228 3743 1945 
Q 3934 1663 3934 1294 
Q 3934 928 3725 604 
Q 3516 281 3123 101 
Q 2731 -78 2241 -78 
Q 1619 -78 1198 103 
Q 778 284 539 648 
Q 300 1013 288 1472 
z
" transform="scale(0.015625)"/>
       <path id="ArialMT-79" d="M 397 -1278 
L 334 -750 
Q 519 -800 656 -800 
Q 844 -800 956 -737 
Q 1069 -675 1141 -563 
Q 1194 -478 1313 -144 
Q 1328 -97 1363 -6 
L 103 3319 
L 709 3319 
L 1400 1397 
Q 1534 1031 1641 628 
Q 1738 1016 1872 1384 
L 2581 3319 
L 3144 3319 
L 1881 -56 
Q 1678 -603 1566 -809 
Q 1416 -1088 1222 -1217 
Q 1028 -1347 759 -1347 
Q 597 -1347 397 -1278 
z
" transform="scale(0.015625)"/>
       <path id="ArialMT-73" d="M 197 991 
L 753 1078 
Q 800 744 1014 566 
Q 1228 388 1613 388 
Q 2000 388 2187 545 
Q 2375 703 2375 916 
Q 2375 1106 2209 1216 
Q 2094 1291 1634 1406 
Q 1016 1563 777 1677 
Q 538 1791 414 1992 
Q 291 2194 291 2438 
Q 291 2659 392 2848 
Q 494 3038 669 3163 
Q 800 3259 1026 3326 
Q 1253 3394 1513 3394 
Q 1903 3394 2198 3281 
Q 2494 3169 2634 2976 
Q 2775 2784 2828 2463 
L 2278 2388 
Q 2241 2644 2061 2787 
Q 1881 2931 1553 2931 
Q 1166 2931 1000 2803 
Q 834 2675 834 2503 
Q 834 2394 903 2306 
Q 972 2216 1119 2156 
Q 1203 2125 1616 2013 
Q 2213 1853 2448 1751 
Q 2684 1650 2818 1456 
Q 2953 1263 2953 975 
Q 2953 694 2789 445 
Q 2625 197 2315 61 
Q 2006 -75 1616 -75 
Q 969 -75 630 194 
Q 291 463 197 991 
z
" transform="scale(0.015625)"/>
       <path id="ArialMT-74" d="M 1650 503 
L 1731 6 
Q 1494 -44 1306 -44 
Q 1000 -44 831 53 
Q 663 150 594 308 
Q 525 466 525 972 
L 525 2881 
L 113 2881 
L 113 3319 
L 525 3319 
L 525 4141 
L 1084 4478 
L 1084 3319 
L 1650 3319 
L 1650 2881 
L 1084 2881 
L 1084 941 
Q 1084 700 1114 631 
Q 1144 563 1211 522 
Q 1278 481 1403 481 
Q 1497 481 1650 503 
z
" transform="scale(0.015625)"/>
       <path id="ArialMT-65" d="M 2694 1069 
L 3275 997 
Q 3138 488 2766 206 
Q 2394 -75 1816 -75 
Q 1088 -75 661 373 
Q 234 822 234 1631 
Q 234 2469 665 2931 
Q 1097 3394 1784 3394 
Q 2450 3394 2872 2941 
Q 3294 2488 3294 1666 
Q 3294 1616 3291 1516 
L 816 1516 
Q 847 969 1125 678 
Q 1403 388 1819 388 
Q 2128 388 2347 550 
Q 2566 713 2694 1069 
z
M 847 1978 
L 2700 1978 
Q 2663 2397 2488 2606 
Q 2219 2931 1791 2931 
Q 1403 2931 1139 2672 
Q 875 2413 847 1978 
z
" transform="scale(0.015625)"/>
       <path id="ArialMT-6d" d="M 422 0 
L 422 3319 
L 925 3319 
L 925 2853 
Q 1081 3097 1340 3245 
Q 1600 3394 1931 3394 
Q 2300 3394 2536 3241 
Q 2772 3088 2869 2813 
Q 3263 3394 3894 3394 
Q 4388 3394 4653 3120 
Q 4919 2847 4919 2278 
L 4919 0 
L 4359 0 
L 4359 2091 
Q 4359 2428 4304 2576 
Q 4250 2725 4106 2815 
Q 3963 2906 3769 2906 
Q 3419 2906 3187 2673 
Q 2956 2441 2956 1928 
L 2956 0 
L 2394 0 
L 2394 2156 
Q 2394 2531 2256 2718 
Q 2119 2906 1806 2906 
Q 1569 2906 1367 2781 
Q 1166 2656 1075 2415 
Q 984 2175 984 1722 
L 984 0 
L 422 0 
z
" transform="scale(0.015625)"/>
       <path id="ArialMT-20" transform="scale(0.015625)"/>
       <path id="ArialMT-69" d="M 425 3934 
L 425 4581 
L 988 4581 
L 988 3934 
L 425 3934 
z
M 425 0 
L 425 3319 
L 988 3319 
L 988 0 
L 425 0 
z
" transform="scale(0.015625)"/>
       <path id="ArialMT-7a" d="M 125 0 
L 125 456 
L 2238 2881 
Q 1878 2863 1603 2863 
L 250 2863 
L 250 3319 
L 2963 3319 
L 2963 2947 
L 1166 841 
L 819 456 
Q 1197 484 1528 484 
L 3063 484 
L 3063 0 
L 125 0 
z
" transform="scale(0.015625)"/>
       <path id="DejaVuSans-Oblique-2113" d="M 950 838 
Q 1078 213 1350 213 
Q 1531 213 1766 572 
L 2181 572 
Q 1994 253 1775 88 
Q 1538 -91 1319 -91 
Q 831 -91 634 344 
L 400 0 
L -88 0 
Q 250 459 500 888 
Q 469 1131 469 1397 
Q 469 1872 566 2347 
Q 931 4131 1256 4497 
Q 1481 4750 1866 4750 
Q 2256 4750 2256 4209 
Q 2253 3966 2197 3675 
Q 1972 2484 950 838 
z
M 947 1656 
Q 1531 2744 1709 3613 
Q 1803 4072 1803 4191 
Q 1803 4406 1725 4406 
Q 1384 4134 1081 2516 
Q 997 2063 947 1656 
z
" transform="scale(0.015625)"/>
      </defs>
      <use xlink:href="#ArialMT-53" transform="translate(0 0.78125)"/>
      <use xlink:href="#ArialMT-79" transform="translate(66.699219 0.78125)"/>
      <use xlink:href="#ArialMT-73" transform="translate(116.699219 0.78125)"/>
      <use xlink:href="#ArialMT-74" transform="translate(166.699219 0.78125)"/>
      <use xlink:href="#ArialMT-65" transform="translate(194.482422 0.78125)"/>
      <use xlink:href="#ArialMT-6d" transform="translate(250.097656 0.78125)"/>
      <use xlink:href="#ArialMT-20" transform="translate(333.398438 0.78125)"/>
      <use xlink:href="#ArialMT-73" transform="translate(361.181641 0.78125)"/>
      <use xlink:href="#ArialMT-69" transform="translate(411.181641 0.78125)"/>
      <use xlink:href="#ArialMT-7a" transform="translate(433.398438 0.78125)"/>
      <use xlink:href="#ArialMT-65" transform="translate(483.398438 0.78125)"/>
      <use xlink:href="#ArialMT-20" transform="translate(539.013672 0.78125)"/>
      <use xlink:href="#DejaVuSans-Oblique-2113" transform="translate(566.796875 0.78125)"/>
     </g>
    </g>
   </g>
   <g id="matplotlib.axis_2">
    <g id="ytick_1">
     <g id="line2d_5">
      <defs>
       <path id="mbe2d14b86c" d="M 0 0 
L -3.5 0 
" style="stroke: #000000; stroke-width: 0.8"/>
      </defs>
      <g>
       <use xlink:href="#mbe2d14b86c" x="60.944882" y="147.526459" style="stroke: #000000; stroke-width: 0.8"/>
      </g>
     </g>
     <g id="text_6">
      <!-- −0.02 -->
      <g transform="translate(33.703632 150.389584) scale(0.08 -0.08)">
       <defs>
        <path id="ArialMT-2212" d="M 3381 1997 
L 356 1997 
L 356 2522 
L 3381 2522 
L 3381 1997 
z
" transform="scale(0.015625)"/>
        <path id="ArialMT-2e" d="M 581 0 
L 581 641 
L 1222 641 
L 1222 0 
L 581 0 
z
" transform="scale(0.015625)"/>
       </defs>
       <use xlink:href="#ArialMT-2212"/>
       <use xlink:href="#ArialMT-30" x="58.398438"/>
       <use xlink:href="#ArialMT-2e" x="114.013672"/>
       <use xlink:href="#ArialMT-30" x="141.796875"/>
       <use xlink:href="#ArialMT-32" x="197.412109"/>
      </g>
     </g>
    </g>
    <g id="ytick_2">
     <g id="line2d_6">
      <g>
       <use xlink:href="#mbe2d14b86c" x="60.944882" y="124.511202" style="stroke: #000000; stroke-width: 0.8"/>
      </g>
     </g>
     <g id="text_7">
      <!-- −0.01 -->
      <g transform="translate(33.703632 127.374327) scale(0.08 -0.08)">
       <defs>
        <path id="ArialMT-31" d="M 2384 0 
L 1822 0 
L 1822 3584 
Q 1619 3391 1289 3197 
Q 959 3003 697 2906 
L 697 3450 
Q 1169 3672 1522 3987 
Q 1875 4303 2022 4600 
L 2384 4600 
L 2384 0 
z
" transform="scale(0.015625)"/>
       </defs>
       <use xlink:href="#ArialMT-2212"/>
       <use xlink:href="#ArialMT-30" x="58.398438"/>
       <use xlink:href="#ArialMT-2e" x="114.013672"/>
       <use xlink:href="#ArialMT-30" x="141.796875"/>
       <use xlink:href="#ArialMT-31" x="197.412109"/>
      </g>
     </g>
    </g>
    <g id="ytick_3">
     <g id="line2d_7">
      <g>
       <use xlink:href="#mbe2d14b86c" x="60.944882" y="101.495944" style="stroke: #000000; stroke-width: 0.8"/>
      </g>
     </g>
     <g id="text_8">
      <!-- 0.00 -->
      <g transform="translate(38.376132 104.359069) scale(0.08 -0.08)">
       <use xlink:href="#ArialMT-30"/>
       <use xlink:href="#ArialMT-2e" x="55.615234"/>
       <use xlink:href="#ArialMT-30" x="83.398438"/>
       <use xlink:href="#ArialMT-30" x="139.013672"/>
      </g>
     </g>
    </g>
    <g id="ytick_4">
     <g id="line2d_8">
      <g>
       <use xlink:href="#mbe2d14b86c" x="60.944882" y="78.480686" style="stroke: #000000; stroke-width: 0.8"/>
      </g>
     </g>
     <g id="text_9">
      <!-- 0.01 -->
      <g transform="translate(38.376132 81.343811) scale(0.08 -0.08)">
       <use xlink:href="#ArialMT-30"/>
       <use xlink:href="#ArialMT-2e" x="55.615234"/>
       <use xlink:href="#ArialMT-30" x="83.398438"/>
       <use xlink:href="#ArialMT-31" x="139.013672"/>
      </g>
     </g>
    </g>
    <g id="ytick_5">
     <g id="line2d_9">
      <g>
       <use xlink:href="#mbe2d14b86c" x="60.944882" y="55.465429" style="stroke: #000000; stroke-width: 0.8"/>
      </g>
     </g>
     <g id="text_10">
      <!-- 0.02 -->
      <g transform="translate(38.376132 58.328554) scale(0.08 -0.08)">
       <use xlink:href="#ArialMT-30"/>
       <use xlink:href="#ArialMT-2e" x="55.615234"/>
       <use xlink:href="#ArialMT-30" x="83.398438"/>
       <use xlink:href="#ArialMT-32" x="139.013672"/>
      </g>
     </g>
    </g>
    <g id="ytick_6">
     <g id="line2d_10">
      <g>
       <use xlink:href="#mbe2d14b86c" x="60.944882" y="32.450171" style="stroke: #000000; stroke-width: 0.8"/>
      </g>
     </g>
     <g id="text_11">
      <!-- 0.03 -->
      <g transform="translate(38.376132 35.313296) scale(0.08 -0.08)">
       <defs>
        <path id="ArialMT-33" d="M 269 1209 
L 831 1284 
Q 928 806 1161 595 
Q 1394 384 1728 384 
Q 2125 384 2398 659 
Q 2672 934 2672 1341 
Q 2672 1728 2419 1979 
Q 2166 2231 1775 2231 
Q 1616 2231 1378 2169 
L 1441 2663 
Q 1497 2656 1531 2656 
Q 1891 2656 2178 2843 
Q 2466 3031 2466 3422 
Q 2466 3731 2256 3934 
Q 2047 4138 1716 4138 
Q 1388 4138 1169 3931 
Q 950 3725 888 3313 
L 325 3413 
Q 428 3978 793 4289 
Q 1159 4600 1703 4600 
Q 2078 4600 2393 4439 
Q 2709 4278 2876 4000 
Q 3044 3722 3044 3409 
Q 3044 3113 2884 2869 
Q 2725 2625 2413 2481 
Q 2819 2388 3044 2092 
Q 3269 1797 3269 1353 
Q 3269 753 2831 336 
Q 2394 -81 1725 -81 
Q 1122 -81 723 278 
Q 325 638 269 1209 
z
" transform="scale(0.015625)"/>
       </defs>
       <use xlink:href="#ArialMT-30"/>
       <use xlink:href="#ArialMT-2e" x="55.615234"/>
       <use xlink:href="#ArialMT-30" x="83.398438"/>
       <use xlink:href="#ArialMT-33" x="139.013672"/>
      </g>
     </g>
    </g>
    <g id="text_12">
     <!-- Order parameter $\mu(\rho)$ -->
     <g transform="translate(28.023632 131.55622) rotate(-90) scale(0.08 -0.08)">
      <defs>
       <path id="ArialMT-4f" d="M 309 2231 
Q 309 3372 921 4017 
Q 1534 4663 2503 4663 
Q 3138 4663 3647 4359 
Q 4156 4056 4423 3514 
Q 4691 2972 4691 2284 
Q 4691 1588 4409 1038 
Q 4128 488 3612 205 
Q 3097 -78 2500 -78 
Q 1853 -78 1343 234 
Q 834 547 571 1087 
Q 309 1628 309 2231 
z
M 934 2222 
Q 934 1394 1379 917 
Q 1825 441 2497 441 
Q 3181 441 3623 922 
Q 4066 1403 4066 2288 
Q 4066 2847 3877 3264 
Q 3688 3681 3323 3911 
Q 2959 4141 2506 4141 
Q 1863 4141 1398 3698 
Q 934 3256 934 2222 
z
" transform="scale(0.015625)"/>
       <path id="ArialMT-72" d="M 416 0 
L 416 3319 
L 922 3319 
L 922 2816 
Q 1116 3169 1280 3281 
Q 1444 3394 1641 3394 
Q 1925 3394 2219 3213 
L 2025 2691 
Q 1819 2813 1613 2813 
Q 1428 2813 1281 2702 
Q 1134 2591 1072 2394 
Q 978 2094 978 1738 
L 978 0 
L 416 0 
z
" transform="scale(0.015625)"/>
       <path id="ArialMT-64" d="M 2575 0 
L 2575 419 
Q 2259 -75 1647 -75 
Q 1250 -75 917 144 
Q 584 363 401 755 
Q 219 1147 219 1656 
Q 219 2153 384 2558 
Q 550 2963 881 3178 
Q 1213 3394 1622 3394 
Q 1922 3394 2156 3267 
Q 2391 3141 2538 2938 
L 2538 4581 
L 3097 4581 
L 3097 0 
L 2575 0 
z
M 797 1656 
Q 797 1019 1065 703 
Q 1334 388 1700 388 
Q 2069 388 2326 689 
Q 2584 991 2584 1609 
Q 2584 2291 2321 2609 
Q 2059 2928 1675 2928 
Q 1300 2928 1048 2622 
Q 797 2316 797 1656 
z
" transform="scale(0.015625)"/>
       <path id="ArialMT-70" d="M 422 -1272 
L 422 3319 
L 934 3319 
L 934 2888 
Q 1116 3141 1344 3267 
Q 1572 3394 1897 3394 
Q 2322 3394 2647 3175 
Q 2972 2956 3137 2557 
Q 3303 2159 3303 1684 
Q 3303 1175 3120 767 
Q 2938 359 2589 142 
Q 2241 -75 1856 -75 
Q 1575 -75 1351 44 
Q 1128 163 984 344 
L 984 -1272 
L 422 -1272 
z
M 931 1641 
Q 931 1000 1190 694 
Q 1450 388 1819 388 
Q 2194 388 2461 705 
Q 2728 1022 2728 1688 
Q 2728 2322 2467 2637 
Q 2206 2953 1844 2953 
Q 1484 2953 1207 2617 
Q 931 2281 931 1641 
z
" transform="scale(0.015625)"/>
       <path id="ArialMT-61" d="M 2588 409 
Q 2275 144 1986 34 
Q 1697 -75 1366 -75 
Q 819 -75 525 192 
Q 231 459 231 875 
Q 231 1119 342 1320 
Q 453 1522 633 1644 
Q 813 1766 1038 1828 
Q 1203 1872 1538 1913 
Q 2219 1994 2541 2106 
Q 2544 2222 2544 2253 
Q 2544 2597 2384 2738 
Q 2169 2928 1744 2928 
Q 1347 2928 1158 2789 
Q 969 2650 878 2297 
L 328 2372 
Q 403 2725 575 2942 
Q 747 3159 1072 3276 
Q 1397 3394 1825 3394 
Q 2250 3394 2515 3294 
Q 2781 3194 2906 3042 
Q 3031 2891 3081 2659 
Q 3109 2516 3109 2141 
L 3109 1391 
Q 3109 606 3145 398 
Q 3181 191 3288 0 
L 2700 0 
Q 2613 175 2588 409 
z
M 2541 1666 
Q 2234 1541 1622 1453 
Q 1275 1403 1131 1340 
Q 988 1278 909 1158 
Q 831 1038 831 891 
Q 831 666 1001 516 
Q 1172 366 1500 366 
Q 1825 366 2078 508 
Q 2331 650 2450 897 
Q 2541 1088 2541 1459 
L 2541 1666 
z
" transform="scale(0.015625)"/>
       <path id="DejaVuSans-Oblique-3bc" d="M -84 -1331 
L 856 3500 
L 1434 3500 
L 1009 1322 
Q 997 1256 987 1175 
Q 978 1094 978 1013 
Q 978 722 1161 565 
Q 1344 409 1684 409 
Q 2147 409 2431 671 
Q 2716 934 2816 1459 
L 3213 3500 
L 3788 3500 
L 3266 809 
Q 3253 750 3248 706 
Q 3244 663 3244 628 
Q 3244 531 3283 486 
Q 3322 441 3406 441 
Q 3438 441 3492 456 
Q 3547 472 3647 513 
L 3559 50 
Q 3422 -19 3297 -55 
Q 3172 -91 3053 -91 
Q 2847 -91 2730 40 
Q 2613 172 2613 403 
Q 2438 153 2195 31 
Q 1953 -91 1625 -91 
Q 1334 -91 1117 43 
Q 900 178 831 397 
L 494 -1331 
L -84 -1331 
z
" transform="scale(0.015625)"/>
       <path id="DejaVuSans-28" d="M 1984 4856 
Q 1566 4138 1362 3434 
Q 1159 2731 1159 2009 
Q 1159 1288 1364 580 
Q 1569 -128 1984 -844 
L 1484 -844 
Q 1016 -109 783 600 
Q 550 1309 550 2009 
Q 550 2706 781 3412 
Q 1013 4119 1484 4856 
L 1984 4856 
z
" transform="scale(0.015625)"/>
       <path id="DejaVuSans-Oblique-3c1" d="M 1203 2875 
Q 1453 3194 1981 3475 
Q 2188 3584 2756 3584 
Q 3394 3584 3694 3078 
Q 3994 2572 3834 1747 
Q 3672 922 3175 415 
Q 2678 -91 2041 -91 
Q 1656 -91 1409 63 
Q 1163 213 1044 525 
L 681 -1331 
L 103 -1331 
L 697 1716 
Q 838 2438 1203 2875 
z
M 3238 1747 
Q 3359 2381 3169 2744 
Q 2978 3103 2522 3103 
Q 2066 3103 1734 2744 
Q 1403 2381 1281 1747 
Q 1156 1113 1347 750 
Q 1538 391 1994 391 
Q 2450 391 2781 750 
Q 3113 1113 3238 1747 
z
" transform="scale(0.015625)"/>
       <path id="DejaVuSans-29" d="M 513 4856 
L 1013 4856 
Q 1481 4119 1714 3412 
Q 1947 2706 1947 2009 
Q 1947 1309 1714 600 
Q 1481 -109 1013 -844 
L 513 -844 
Q 928 -128 1133 580 
Q 1338 1288 1338 2009 
Q 1338 2731 1133 3434 
Q 928 4138 513 4856 
z
" transform="scale(0.015625)"/>
      </defs>
      <use xlink:href="#ArialMT-4f" transform="translate(0 0.125)"/>
      <use xlink:href="#ArialMT-72" transform="translate(77.783203 0.125)"/>
      <use xlink:href="#ArialMT-64" transform="translate(111.083984 0.125)"/>
      <use xlink:href="#ArialMT-65" transform="translate(166.699219 0.125)"/>
      <use xlink:href="#ArialMT-72" transform="translate(222.314453 0.125)"/>
      <use xlink:href="#ArialMT-20" transform="translate(255.615234 0.125)"/>
      <use xlink:href="#ArialMT-70" transform="translate(283.398438 0.125)"/>
      <use xlink:href="#ArialMT-61" transform="translate(339.013672 0.125)"/>
      <use xlink:href="#ArialMT-72" transform="translate(394.628906 0.125)"/>
      <use xlink:href="#ArialMT-61" transform="translate(427.929688 0.125)"/>
      <use xlink:href="#ArialMT-6d" transform="translate(483.544922 0.125)"/>
      <use xlink:href="#ArialMT-65" transform="translate(566.845703 0.125)"/>
      <use xlink:href="#ArialMT-74" transform="translate(622.460938 0.125)"/>
      <use xlink:href="#ArialMT-65" transform="translate(650.244141 0.125)"/>
      <use xlink:href="#ArialMT-72" transform="translate(705.859375 0.125)"/>
      <use xlink:href="#ArialMT-20" transform="translate(739.160156 0.125)"/>
      <use xlink:href="#DejaVuSans-Oblique-3bc" transform="translate(766.943359 0.125)"/>
      <use xlink:href="#DejaVuSans-28" transform="translate(830.566406 0.125)"/>
      <use xlink:href="#DejaVuSans-Oblique-3c1" transform="translate(869.580078 0.125)"/>
      <use xlink:href="#DejaVuSans-29" transform="translate(933.056641 0.125)"/>
     </g>
    </g>
   </g>
   <g id="line2d_11">
    <path d="M 63.339145 101.495944 
L 65.733408 101.495944 
L 68.127672 101.495944 
L 70.521935 101.495944 
L 72.916198 101.495944 
L 75.310461 101.495944 
L 77.704724 101.495944 
L 80.098988 101.495944 
L 82.493251 101.495944 
L 84.887514 101.495944 
L 87.281777 101.495944 
L 89.67604 101.495944 
" clip-path="url(#p4f73c19b34)" style="fill: none; stroke: #1f77b4; stroke-linecap: square"/>
   </g>
   <g id="line2d_12">
    <path d="M 92.070304 101.495944 
L 94.464567 101.495944 
L 96.85883 101.495944 
L 99.253093 101.495944 
L 101.647357 101.495944 
L 104.04162 101.495944 
L 106.435883 101.495944 
L 108.830146 101.495944 
L 111.224409 101.495944 
L 113.618673 101.495944 
L 116.012936 101.495944 
L 118.407199 101.495944 
L 120.801462 101.495944 
L 123.195726 101.495944 
L 125.589989 101.495944 
L 127.984252 101.495944 
L 130.378515 101.495944 
L 132.772778 101.495944 
L 135.167042 101.495944 
L 137.561305 101.495944 
L 139.955568 101.495944 
L 142.349831 101.495944 
L 144.744094 101.495944 
L 147.138358 101.495944 
L 149.532621 101.495944 
L 151.926884 101.495944 
L 154.321147 101.495944 
L 156.715411 101.495944 
L 159.109674 101.495944 
L 161.503937 101.495944 
L 163.8982 101.495944 
L 166.292463 101.495944 
L 168.686727 101.495944 
L 171.08099 101.495944 
L 173.475253 101.495944 
L 175.869516 101.495944 
L 178.26378 101.495944 
L 180.658043 101.495944 
L 183.052306 101.495944 
L 185.446569 101.495944 
L 187.840832 101.495944 
L 190.235096 101.495944 
L 192.629359 101.495944 
L 195.023622 101.495944 
L 197.417885 101.495944 
L 199.812148 101.495944 
L 202.206412 101.495944 
L 204.600675 101.495944 
L 206.994938 101.495944 
L 209.389201 101.495944 
L 211.783465 101.495944 
L 214.177728 101.495944 
L 216.571991 101.495944 
L 218.966254 101.495944 
L 221.360517 101.495944 
L 223.754781 101.495944 
L 226.149044 101.495944 
L 228.543307 101.495944 
L 230.93757 101.495944 
L 233.331834 101.495944 
L 235.726097 101.495944 
L 238.12036 101.495944 
L 240.514623 101.495944 
L 242.908886 101.495944 
L 245.30315 101.495944 
L 247.697413 101.495944 
L 250.091676 101.495944 
L 252.485939 101.495944 
L 254.880202 101.495944 
L 257.274466 101.495944 
L 259.668729 101.495944 
L 262.062992 101.495944 
L 264.457255 101.495944 
L 266.851519 101.495944 
L 269.245782 101.495944 
L 271.640045 101.495944 
L 274.034308 101.495944 
L 276.428571 101.495944 
L 278.822835 101.495944 
L 281.217098 101.495944 
L 283.611361 101.495944 
L 286.005624 101.495944 
L 288.399888 101.495944 
L 290.794151 101.495944 
L 293.188414 101.495944 
L 295.582677 101.495944 
L 297.97694 101.495944 
L 300.371204 101.495944 
" clip-path="url(#p4f73c19b34)" style="fill: none; stroke-dasharray: 1,1.65; stroke-dashoffset: 0; stroke: #ff7f0e"/>
   </g>
   <g id="line2d_13">
    <path d="M 91.961676 101.489039 
L 92.98654 93.728294 
L 94.336737 84.904245 
L 95.637852 77.725786 
L 96.97828 71.45643 
L 98.445006 65.672695 
L 99.930598 60.710606 
L 101.842992 55.525268 
L 103.626933 51.543629 
L 105.036053 48.889969 
L 106.659387 46.268532 
L 107.530109 44.965868 
L 109.535568 42.473316 
L 111.84201 40.128061 
L 114.473808 37.980737 
L 117.438887 36.075074 
L 120.724559 34.429483 
L 124.299553 33.048568 
L 128.1213 31.911614 
L 134.237325 30.60895 
L 138.482641 29.925397 
L 138.482641 29.925397 
L 145.273777 29.087642 
L 154.304507 28.341947 
L 163.509827 27.80339 
L 177.519714 27.24412 
L 196.402239 26.763101 
L 222.54223 26.358032 
L 248.764895 26.153196 
L 265.309733 26.242956 
L 274.228651 26.493822 
L 279.998969 26.841353 
L 284.438124 27.317768 
L 287.587586 27.883944 
L 290.571341 28.700985 
L 292.668667 29.329302 
L 294.699338 29.711355 
L 298.231714 29.916191 
L 300.380613 29.918492 
L 300.380613 29.918492 
" clip-path="url(#p4f73c19b34)" style="fill: none; stroke: #2ca02c; stroke-linecap: square"/>
   </g>
   <g id="line2d_14">
    <path d="M 91.96067 101.495944 
L 93.527117 112.12439 
L 94.785614 118.831036 
L 96.06676 124.380015 
L 97.272367 128.720692 
L 98.48226 132.373214 
L 99.975778 136.145414 
L 101.883838 139.959043 
L 103.69948 142.778412 
L 105.119349 144.617331 
L 105.877038 145.528735 
L 107.628681 147.264085 
L 109.649894 148.895867 
L 111.974269 150.396462 
L 114.625532 151.742855 
L 117.610197 152.916633 
L 120.913993 153.915495 
L 126.422642 155.091575 
L 132.376695 155.998376 
L 140.881382 156.838433 
L 152.044921 157.52889 
L 163.731679 157.998402 
L 180.095415 158.426485 
L 206.118901 158.829252 
L 237.070715 159.089325 
L 260.857864 159.073214 
L 272.296456 158.87068 
L 280.162521 158.527753 
L 284.556688 158.171016 
L 288.501093 157.627856 
L 293.650243 156.762482 
L 296.436328 156.71415 
L 300.590853 156.891368 
L 300.590853 156.891368 
" clip-path="url(#p4f73c19b34)" style="fill: none; stroke: #d62728; stroke-linecap: square"/>
   </g>
   <g id="line2d_15">
    <path d="M 218.990604 101.493642 
L 219.019598 101.491341 
L 219.054387 101.486738 
L 219.112376 101.479833 
L 219.170341 101.470627 
L 219.251603 101.461421 
L 219.338706 101.449913 
L 219.437565 101.436104 
L 219.54818 101.419994 
L 219.670694 101.403883 
L 219.805156 101.383169 
L 219.951709 101.362455 
L 220.110401 101.341742 
L 220.281423 101.316425 
L 220.458551 101.291108 
L 220.660986 101.26349 
L 220.863301 101.23357 
L 221.091666 101.20365 
L 221.326639 101.169127 
L 221.5681 101.134604 
L 221.836952 101.100081 
L 222.105612 101.060956 
L 222.402692 101.02183 
L 222.707027 100.980402 
L 223.026039 100.936673 
L 223.360062 100.892944 
L 223.709433 100.844612 
L 224.066322 100.79628 
L 224.455629 100.747948 
L 224.853221 100.695013 
L 225.267692 100.642078 
L 225.690447 100.586841 
L 226.149044 100.529303 
L 228.543307 100.234708 
L 228.543307 100.234708 
L 230.93757 99.956223 
L 231.578155 99.882574 
L 232.266769 99.808926 
L 232.968576 99.730674 
L 233.68312 99.652422 
L 234.450266 99.571868 
L 235.231873 99.491315 
L 236.041709 99.40846 
L 236.880634 99.323304 
L 237.749489 99.238147 
L 238.649133 99.150689 
L 239.580453 99.063231 
L 240.52784 98.973472 
L 241.541331 98.881411 
L 242.555421 98.78935 
L 243.638873 98.697289 
L 244.740977 98.602926 
L 245.879568 98.506262 
L 247.036524 98.409598 
L 248.268421 98.312934 
L 249.500796 98.21627 
L 250.810099 98.117304 
L 252.139418 98.018338 
L 253.507978 97.919373 
L 254.896076 97.820407 
L 256.362658 97.721442 
L 257.829336 97.620175 
L 259.373828 97.521209 
L 260.918247 97.422243 
L 262.538756 97.325579 
L 264.177701 97.226614 
L 265.853159 97.127648 
L 267.564171 97.030984 
L 269.29247 96.93432 
L 271.088215 96.839957 
L 272.899547 96.745595 
L 274.741909 96.653534 
L 276.599211 96.561473 
L 278.514047 96.471713 
L 280.428188 96.379652 
L 282.394549 96.294496 
L 284.360191 96.207038 
L 286.372689 96.121881 
L 288.395291 96.039026 
L 290.428212 95.956171 
L 292.500351 95.875618 
L 294.580846 95.797366 
L 296.669864 95.716813 
L 298.791253 95.643164 
L 300.919442 95.567214 
" clip-path="url(#p4f73c19b34)" style="fill: none; stroke-dasharray: 1,1.65; stroke-dashoffset: 0; stroke: #9467bd"/>
   </g>
   <g id="line2d_16">
    <path d="M 218.967403 101.495944 
L 218.973198 101.495944 
L 218.973293 101.498245 
L 218.990867 101.502849 
L 219.020221 101.507452 
L 219.061378 101.514356 
L 219.114483 101.523562 
L 219.179583 101.53507 
L 219.256846 101.548879 
L 219.346344 101.562688 
L 219.442018 101.578799 
L 219.562689 101.597211 
L 219.689872 101.617925 
L 219.829961 101.638639 
L 219.98317 101.661654 
L 220.149715 101.686971 
L 220.329835 101.714589 
L 220.516803 101.744509 
L 220.731808 101.774429 
L 220.954235 101.80665 
L 221.191387 101.841173 
L 221.443574 101.877997 
L 221.7034 101.917123 
L 221.994518 101.956249 
L 222.294065 101.997677 
L 222.601847 102.041406 
L 222.943437 102.087436 
L 223.294196 102.135768 
L 223.663009 102.1841 
L 224.041015 102.237035 
L 224.456922 102.28997 
L 224.883221 102.345207 
L 225.319599 102.402745 
L 225.79759 102.460283 
L 226.287049 102.522424 
L 226.798991 102.584566 
L 227.322377 102.649008 
L 227.893265 102.715753 
L 228.477321 102.782497 
L 229.087116 102.851543 
L 229.710032 102.925191 
L 230.38744 102.99884 
L 231.079981 103.072489 
L 231.802067 103.150741 
L 232.539213 103.228993 
L 233.338825 103.309546 
L 234.155723 103.392401 
L 235.006357 103.475256 
L 235.874158 103.560413 
L 236.812877 103.645569 
L 237.771085 103.733027 
L 238.767242 103.822786 
L 239.802282 103.912546 
L 240.856979 104.004607 
L 241.992362 104.096668 
L 243.149342 104.191031 
L 244.348389 104.285393 
L 245.590102 104.379756 
L 246.874816 104.474118 
L 248.202818 104.570782 
L 249.57418 104.665145 
L 250.967019 104.761809 
L 252.445859 104.856172 
L 253.946057 104.952836 
L 255.467132 105.0495 
L 257.070786 105.141561 
L 258.694192 105.235923 
L 260.337111 105.330286 
L 262.056192 105.420045 
L 263.792847 105.509805 
L 265.564482 105.599564 
L 267.352853 105.689324 
L 269.205678 105.77448 
L 271.057712 105.861938 
L 272.967784 105.944793 
L 274.877041 106.027648 
L 276.837895 106.108202 
L 278.80981 106.186453 
L 280.792978 106.264705 
L 282.818692 106.340656 
L 284.843712 106.416606 
L 286.905843 106.487953 
L 288.967328 106.559301 
L 291.061063 106.628346 
L 293.154224 106.697392 
L 295.27535 106.761835 
L 297.395972 106.828579 
L 299.540825 106.89072 
L 301.685223 106.952862 
" clip-path="url(#p4f73c19b34)" style="fill: none; stroke-dasharray: 1,1.65; stroke-dashoffset: 0; stroke: #8c564b"/>
   </g>
   <g id="line2d_17">
    <path d="M 115.027457 101.489039 
L 115.236213 101.111589 
L 118.466529 94.950405 
L 120.328212 91.990642 
L 122.17225 89.440552 
L 124.102768 87.118312 
L 125.981475 85.150508 
L 128.238882 83.10215 
L 130.95491 80.998555 
L 134.312984 78.897262 
L 137.298439 77.346034 
L 140.762578 75.859248 
L 144.719386 74.455318 
L 149.275262 73.203288 
L 154.321147 72.091651 
L 161.018859 70.966205 
L 166.97818 70.2044 
L 175.356354 69.394262 
L 184.086221 68.775152 
L 195.323767 68.199771 
L 211.425714 67.6405 
L 230.131805 67.214718 
L 255.979193 66.837267 
L 301.153769 66.459817 
L 301.153769 66.459817 
" clip-path="url(#p4f73c19b34)" style="fill: none; stroke-dasharray: 1,1.65; stroke-dashoffset: 0; stroke: #e377c2"/>
   </g>
   <g id="line2d_18">
    <path d="M 115.015151 101.512055 
L 115.019341 101.495944 
L 115.100339 101.788238 
L 116.021603 103.995401 
L 117.523524 107.038018 
L 119.005837 109.62033 
L 120.757767 112.225657 
L 122.701526 114.656068 
L 124.674925 116.745854 
L 126.461022 118.377635 
L 128.634127 120.034734 
L 131.216148 121.68723 
L 133.214999 122.764344 
L 135.430195 123.813839 
L 139.332653 125.252293 
L 142.253175 126.124571 
L 145.437665 126.911693 
L 148.867231 127.606754 
L 152.515921 128.212055 
L 158.316502 128.97386 
L 166.582169 129.733364 
L 177.469411 130.396203 
L 188.722256 130.863413 
L 207.188179 131.349035 
L 235.434978 131.777118 
L 275.808361 132.106237 
L 302.036485 132.239725 
L 302.036485 132.239725 
" clip-path="url(#p4f73c19b34)" style="fill: none; stroke-dasharray: 1,1.65; stroke-dashoffset: 0; stroke: #7f7f7f"/>
   </g>
   <g id="line2d_19">
    <path d="M 143.269348 101.493642 
L 145.559078 99.806624 
L 148.459392 97.894056 
L 151.413123 96.179419 
L 154.398338 94.648905 
L 158.291746 92.90665 
L 162.451946 91.311692 
L 166.528155 89.960697 
L 170.058831 88.922709 
L 177.021181 87.208072 
L 183.426386 85.889298 
L 192.405687 84.388703 
L 200.125893 83.306986 
L 212.371184 81.903055 
L 227.277125 80.535949 
L 244.982007 79.235587 
L 258.361916 78.457671 
L 262.852812 78.319579 
L 278.003805 78.374816 
L 293.955296 77.804038 
L 300.790224 77.509442 
L 300.790224 77.509442 
" clip-path="url(#p4f73c19b34)" style="fill: none; stroke-dasharray: 1,1.65; stroke-dashoffset: 0; stroke: #bcbd22"/>
   </g>
   <g id="line2d_20">
    <path d="M 143.266499 101.495944 
L 145.752079 103.25431 
L 148.787023 105.093229 
L 151.427656 106.476446 
L 154.404156 107.843552 
L 158.316454 109.369464 
L 162.483622 110.743474 
L 166.566535 111.887333 
L 171.416474 113.045 
L 177.076393 114.179652 
L 183.511693 115.259068 
L 190.5973 116.25793 
L 202.206412 117.572101 
L 213.212959 118.584773 
L 228.145428 119.707917 
L 243.469886 120.660749 
L 261.324146 121.565249 
L 301.513842 122.930053 
L 301.513842 122.930053 
" clip-path="url(#p4f73c19b34)" style="fill: none; stroke-dasharray: 1,1.65; stroke-dashoffset: 0; stroke: #17becf"/>
   </g>
   <g id="line2d_21">
    <path d="M 167.219115 101.493642 
L 167.241047 101.486738 
L 167.270759 101.477532 
L 167.308254 101.466024 
L 167.353529 101.449913 
L 167.402707 101.431501 
L 167.467592 101.410787 
L 167.536403 101.385471 
L 167.613163 101.357852 
L 167.697896 101.327933 
L 167.786579 101.29341 
L 167.891568 101.256585 
L 168.000674 101.217459 
L 168.118065 101.17373 
L 168.24386 101.1277 
L 168.378154 101.079368 
L 168.521068 101.026433 
L 168.672768 100.971196 
L 168.828778 100.913658 
L 169.003009 100.851517 
L 169.17712 100.787074 
L 169.370193 100.72033 
L 169.568079 100.648982 
L 169.775757 100.575334 
L 169.993468 100.499383 
L 170.221425 100.41883 
L 170.459894 100.335975 
L 170.709137 100.250818 
L 170.969417 100.161059 
L 171.241046 100.068998 
L 171.518206 99.974635 
L 171.819596 99.87567 
L 172.120723 99.774403 
L 172.447563 99.670834 
L 172.774117 99.564964 
L 173.128037 99.454491 
L 173.481646 99.339414 
L 173.864512 99.224338 
L 174.246996 99.104659 
L 174.66082 98.982678 
L 175.082785 98.856094 
L 175.512508 98.72951 
L 175.977162 98.598323 
L 176.441338 98.462533 
L 176.9432 98.326743 
L 177.444511 98.18635 
L 177.986548 98.043655 
L 178.539168 97.896358 
L 179.113527 97.746758 
L 179.710537 97.597159 
L 180.31844 97.440656 
L 180.976097 97.284152 
L 181.64673 97.125346 
L 182.329669 96.961938 
L 183.068778 96.79853 
L 183.822564 96.630518 
L 184.606374 96.460206 
L 185.404646 96.287591 
L 186.268735 96.114977 
L 187.131891 95.937759 
L 188.065941 95.760542 
L 189.018379 95.581023 
L 190.008335 95.399202 
L 191.016487 95.21508 
L 192.105398 95.030958 
L 193.193495 94.844534 
L 194.366636 94.660412 
L 195.539107 94.473989 
L 196.800117 94.287565 
L 198.060649 94.09884 
L 199.411971 93.914718 
L 200.786326 93.728294 
L 202.206412 93.544172 
L 204.600675 93.247276 
L 204.600675 93.247276 
L 206.994938 92.968791 
L 208.58006 92.78697 
L 210.251687 92.614356 
L 211.922859 92.43944 
L 213.675699 92.271429 
L 215.447406 92.103417 
L 217.256487 91.940009 
L 219.101243 91.778902 
L 220.979854 91.622398 
L 222.890476 91.470498 
L 224.831265 91.320898 
L 226.800379 91.173601 
L 228.782805 91.028605 
L 230.81563 90.892815 
L 232.847546 90.757025 
L 234.923157 90.628139 
L 236.997929 90.499254 
L 239.110292 90.377273 
L 241.23034 90.257594 
L 243.358337 90.137914 
L 245.516095 90.027441 
L 247.673231 89.914666 
L 249.855793 89.808796 
L 252.043551 89.705227 
L 254.236648 89.601659 
L 256.449857 89.504995 
L 258.662636 89.408331 
L 260.892628 89.31627 
L 263.126189 89.22651 
L 265.36698 89.136751 
L 267.614522 89.051594 
L 269.865202 88.966438 
L 272.127756 88.885884 
L 274.392825 88.807632 
L 276.66297 88.72938 
L 278.937855 88.65343 
L 281.217194 88.579781 
L 283.500674 88.508434 
L 285.788082 88.437087 
L 288.079152 88.368041 
L 290.37367 88.301297 
L 292.671445 88.236854 
L 294.972284 88.172411 
L 297.276044 88.11027 
L 299.582533 88.048129 
L 301.891633 87.988289 
" clip-path="url(#p4f73c19b34)" style="fill: none; stroke-dasharray: 1,1.65; stroke-dashoffset: 0; stroke: #1f77b4"/>
   </g>
   <g id="line2d_22">
    <path d="M 167.19862 101.495944 
L 167.200105 101.500547 
L 167.204965 101.495944 
L 167.209418 101.507452 
L 167.222707 101.516658 
L 167.251821 101.528165 
L 167.285005 101.544276 
L 167.326258 101.56499 
L 167.375652 101.588005 
L 167.429164 101.613322 
L 167.499292 101.64094 
L 167.573729 101.673161 
L 167.656739 101.709986 
L 167.748439 101.74681 
L 167.848998 101.788238 
L 167.958559 101.834268 
L 168.077315 101.8826 
L 168.205408 101.933234 
L 168.343054 101.98847 
L 168.490493 102.046009 
L 168.647892 102.10815 
L 168.815562 102.172593 
L 168.993719 102.241638 
L 169.18265 102.312986 
L 169.377065 102.386634 
L 169.594081 102.464886 
L 169.811288 102.547741 
L 170.052486 102.632898 
L 170.2939 102.720356 
L 170.56086 102.812417 
L 170.83486 102.906779 
L 171.122674 103.005745 
L 171.424806 103.107012 
L 171.741783 103.212882 
L 172.066349 103.321054 
L 172.422543 103.433829 
L 172.779145 103.551206 
L 173.169985 103.668584 
L 173.570425 103.792867 
L 173.980179 103.917149 
L 174.428649 104.048336 
L 174.888108 104.179523 
L 175.369043 104.317615 
L 175.872365 104.455706 
L 176.387228 104.600702 
L 176.95043 104.745698 
L 177.514399 104.895297 
L 178.131305 105.047198 
L 178.763438 105.203702 
L 179.410033 105.362507 
L 180.117442 105.523614 
L 180.842305 105.689324 
L 181.600999 105.857335 
L 182.395057 106.027648 
L 183.207239 106.200263 
L 184.095247 106.372877 
L 185.004756 106.550095 
L 185.934736 106.729614 
L 186.949831 106.909133 
L 187.988702 107.090953 
L 189.050151 107.272774 
L 190.20488 107.454594 
L 191.384988 107.638716 
L 192.589303 107.822838 
L 193.892261 108.004659 
L 195.221077 108.186479 
L 196.600029 108.365998 
L 198.028853 108.545517 
L 199.482147 108.725036 
L 201.03272 108.897651 
L 202.606804 109.067964 
L 204.203802 109.240578 
L 205.890273 109.403986 
L 207.576002 109.567395 
L 209.34383 109.721597 
L 211.129926 109.875799 
L 212.934195 110.030001 
L 214.80785 110.172696 
L 216.680427 110.315391 
L 218.613723 110.451181 
L 220.545941 110.586971 
L 222.530618 110.713555 
L 224.514337 110.840139 
L 226.543044 110.959818 
L 228.570865 111.079497 
L 230.637066 111.18997 
L 232.702525 111.300444 
L 234.800642 111.406314 
L 236.898136 111.509883 
L 239.023428 111.608848 
L 241.148193 111.705512 
L 243.296709 111.797573 
L 245.44477 111.889634 
L 247.602696 111.981695 
L 249.785091 112.062249 
L 251.962003 112.147405 
L 254.155148 112.227959 
L 256.348029 112.30621 
L 258.554942 112.382161 
L 260.761638 112.458111 
L 262.980594 112.529458 
L 265.199333 112.600806 
L 267.428799 112.669852 
L 269.658122 112.736596 
L 271.896854 112.80334 
L 274.13549 112.867783 
L 276.382458 112.929924 
L 278.62933 112.992065 
L 280.883625 113.051905 
L 283.137848 113.109443 
L 285.39875 113.166981 
L 287.659557 113.224519 
L 289.926374 113.279756 
L 292.193143 113.332691 
L 294.465322 113.385626 
L 296.737478 113.438561 
L 299.014542 113.489195 
L 301.292779 113.539828 
" clip-path="url(#p4f73c19b34)" style="fill: none; stroke-dasharray: 1,1.65; stroke-dashoffset: 0; stroke: #ff7f0e"/>
   </g>
   <g id="line2d_23">
    <path d="M 194.60544 101.491341 
L 194.627012 101.486738 
L 194.658281 101.477532 
L 194.699223 101.468326 
L 194.74991 101.454516 
L 194.810389 101.440707 
L 194.880708 101.422295 
L 194.960988 101.401581 
L 195.0513 101.378566 
L 195.151715 101.353249 
L 195.262378 101.325631 
L 195.383384 101.29341 
L 195.514901 101.261188 
L 195.657048 101.224364 
L 195.809994 101.187539 
L 195.973905 101.146112 
L 196.148974 101.102383 
L 196.335415 101.056353 
L 196.53342 101.00802 
L 196.743254 100.955085 
L 196.959073 100.90215 
L 197.199361 100.844612 
L 197.439817 100.787074 
L 197.705891 100.724933 
L 197.972181 100.658189 
L 198.265383 100.591444 
L 198.565863 100.520097 
L 198.873406 100.44875 
L 199.210111 100.372799 
L 199.547127 100.294547 
L 199.915006 100.211693 
L 200.28322 100.128838 
L 200.684259 100.04138 
L 201.0943 99.95162 
L 201.522059 99.857258 
L 201.968087 99.762895 
L 202.433029 99.663929 
L 202.907644 99.562662 
L 203.42229 99.456792 
L 203.93744 99.34862 
L 204.495567 99.238147 
L 205.065665 99.125372 
L 205.659131 99.007995 
L 206.276899 98.890617 
L 206.919806 98.766334 
L 207.588859 98.642052 
L 208.284991 98.513167 
L 208.994962 98.38198 
L 209.762491 98.248491 
L 210.530762 98.112701 
L 211.360829 97.972308 
L 212.191663 97.829613 
L 213.088721 97.684617 
L 213.98657 97.53732 
L 214.955049 97.38772 
L 215.924319 97.233518 
L 216.968481 97.079316 
L 218.013433 96.922812 
L 219.137229 96.764007 
L 220.261742 96.600599 
L 221.468403 96.439492 
L 222.675686 96.273782 
L 223.967607 96.110374 
L 225.259958 95.942362 
L 226.638288 95.774351 
L 228.038644 95.606339 
L 229.460358 95.436027 
L 230.967403 95.268015 
L 232.495565 95.100004 
L 234.044366 94.929691 
L 235.674524 94.763981 
L 237.304299 94.59597 
L 238.973077 94.427958 
L 240.734225 94.266851 
L 242.476602 94.103443 
L 244.287575 93.942336 
L 246.097782 93.78123 
L 247.970191 93.627027 
L 249.841787 93.470524 
L 251.769025 93.318623 
L 253.695425 93.166722 
L 255.671028 93.021726 
L 257.645816 92.874428 
L 259.663725 92.734035 
L 261.680892 92.591341 
L 263.735577 92.457852 
L 265.789591 92.319761 
L 267.87612 92.190875 
L 269.962074 92.057387 
L 272.076112 91.933104 
L 274.189672 91.80652 
L 276.327486 91.686841 
L 278.470399 91.567162 
L 280.61846 91.447482 
L 282.775979 91.330105 
L 284.957176 91.221933 
L 287.133059 91.109158 
L 289.324672 91.000986 
L 291.516021 90.895116 
L 293.72109 90.791548 
L 295.925943 90.687979 
L 298.142695 90.586712 
L 300.359256 90.487746 
L 302.586137 90.391082 
" clip-path="url(#p4f73c19b34)" style="fill: none; stroke-dasharray: 1,1.65; stroke-dashoffset: 0; stroke: #2ca02c"/>
   </g>
   <g id="line2d_24">
    <path d="M 194.588656 101.495944 
L 194.59117 101.495944 
L 194.598473 101.498245 
L 194.610588 101.502849 
L 194.642 101.509753 
L 194.67825 101.518959 
L 194.724243 101.530467 
L 194.779982 101.544276 
L 194.840581 101.560387 
L 194.921028 101.578799 
L 195.001427 101.601814 
L 195.10201 101.624829 
L 195.207741 101.652448 
L 195.323743 101.680066 
L 195.45016 101.712287 
L 195.58716 101.744509 
L 195.734862 101.781333 
L 195.893482 101.820459 
L 196.063139 101.861887 
L 196.244074 101.905616 
L 196.430539 101.951646 
L 196.640564 101.999978 
L 196.856622 102.050612 
L 197.084843 102.103547 
L 197.319074 102.158783 
L 197.579019 102.218623 
L 197.845573 102.278463 
L 198.12551 102.342905 
L 198.412007 102.407348 
L 198.727021 102.476394 
L 199.041746 102.547741 
L 199.38664 102.62139 
L 199.731222 102.69734 
L 200.107816 102.775592 
L 200.492694 102.856146 
L 200.894403 102.941302 
L 201.313567 103.026459 
L 201.741158 103.116218 
L 202.206412 103.205978 
L 204.600675 103.666283 
L 204.600675 103.666283 
L 206.994938 104.096668 
L 207.65372 104.211744 
L 208.366228 104.329122 
L 209.093725 104.448801 
L 209.850504 104.573084 
L 210.637618 104.697366 
L 211.440223 104.82395 
L 212.307066 104.952836 
L 213.174675 105.086324 
L 214.111 105.219813 
L 215.04809 105.355603 
L 216.058254 105.491393 
L 217.069184 105.631786 
L 218.157281 105.772179 
L 219.24612 105.914873 
L 220.415741 106.057568 
L 221.586009 106.202564 
L 222.798225 106.349862 
L 224.115021 106.494858 
L 225.433973 106.642156 
L 226.774306 106.789453 
L 228.200784 106.936751 
L 229.649026 107.084048 
L 231.139909 107.231346 
L 232.672837 107.378644 
L 234.247112 107.525941 
L 235.861804 107.670938 
L 237.49608 107.818235 
L 239.169239 107.963231 
L 240.934385 108.101323 
L 242.698479 108.241716 
L 244.479427 108.382109 
L 246.325476 108.517899 
L 248.185938 108.651388 
L 250.075251 108.784876 
L 251.978212 108.918365 
L 253.933176 109.044948 
L 255.899297 109.171532 
L 257.876695 109.295815 
L 259.896878 109.417796 
L 261.91632 109.537475 
L 263.972968 109.654853 
L 266.037421 109.769929 
L 268.117677 109.882704 
L 270.205331 109.993177 
L 272.320854 110.101349 
L 274.435874 110.20952 
L 276.574981 110.313089 
L 278.719115 110.414356 
L 280.868373 110.515623 
L 283.037001 110.614589 
L 285.209675 110.711253 
L 287.386516 110.805616 
L 289.578966 110.897677 
L 291.771154 110.992039 
L 293.976941 111.079497 
L 296.182512 111.169257 
L 298.399887 111.254413 
L 300.619776 111.341871 
" clip-path="url(#p4f73c19b34)" style="fill: none; stroke-dasharray: 1,1.65; stroke-dashoffset: 0; stroke: #d62728"/>
   </g>
   <g id="line2d_25">
    <path d="M 245.938874 101.495944 
L 246.80057 101.601814 
L 246.888439 101.378566 
L 246.961823 101.620226 
L 247.057738 101.357852 
L 247.137562 101.643242 
L 247.241617 101.334837 
L 247.320484 101.666257 
L 247.440293 101.30952 
L 247.533262 101.689272 
L 247.653933 101.284204 
L 247.745897 101.71689 
L 247.882801 101.256585 
L 247.989345 101.744509 
L 248.119354 101.226665 
L 248.240623 101.774429 
L 248.387176 101.194444 
L 248.499563 101.804348 
L 248.65519 101.162223 
L 248.790969 101.838871 
L 248.955574 101.1277 
L 249.082159 101.873394 
L 249.26453 101.090875 
L 249.407084 101.910219 
L 249.590461 101.051749 
L 249.740653 101.947043 
L 249.924963 101.010322 
L 250.091676 101.986169 
L 250.294566 100.968895 
L 252.379083 100.729536 
L 252.485939 102.250844 
L 252.485939 102.250844 
L 252.844959 100.676601 
L 254.411693 100.506288 
L 254.880202 102.499409 
L 254.963666 100.446448 
L 255.463086 102.559249 
L 255.561873 100.384307 
L 256.06984 102.619089 
L 256.160535 100.319864 
L 256.688733 102.68123 
L 256.808063 100.25312 
L 257.35769 102.745672 
L 257.468904 100.184074 
L 258.040247 102.810115 
L 258.142649 100.115028 
L 258.736044 102.879161 
L 258.869572 100.043681 
L 259.486262 102.945905 
L 259.610955 99.970032 
L 260.237007 103.017252 
L 260.380759 99.894082 
L 261.045263 103.0886 
L 261.179724 99.81583 
L 261.854117 103.162249 
L 261.993535 99.737578 
L 262.723665 103.238199 
L 262.868303 99.657025 
L 263.593788 103.314149 
L 263.743645 99.57417 
L 264.495923 103.392401 
L 264.683154 99.489013 
L 265.478816 103.470653 
L 265.623262 99.403857 
L 266.44684 103.551206 
L 266.630672 99.316399 
L 267.483436 103.63176 
L 267.638657 99.22664 
L 268.520607 103.716916 
L 268.716865 99.13688 
L 269.629151 103.799771 
L 269.795624 99.044819 
L 270.674271 101.502849 
L 270.730584 101.509753 
L 270.738198 103.884928 
L 270.777176 101.484436 
L 270.802723 101.514356 
L 270.86835 101.479833 
L 270.890832 101.523562 
L 270.947241 98.952758 
L 270.995078 101.530467 
L 271.211807 101.454516 
L 271.252486 101.551181 
L 271.357546 101.443009 
L 271.406054 101.56499 
L 271.51109 101.431501 
L 271.576453 101.578799 
L 271.696502 101.419994 
L 271.755329 101.592608 
L 271.889934 101.403883 
L 271.921084 103.972386 
L 271.968706 101.608719 
L 272.099337 98.856094 
L 272.191061 101.624829 
L 272.325427 101.373963 
L 272.422323 101.643242 
L 272.567822 101.355551 
L 272.689714 101.663955 
L 272.826881 101.337139 
L 272.966658 101.684669 
L 273.102844 101.316425 
L 273.104424 104.059844 
L 273.262422 101.707684 
L 273.326492 98.761731 
L 273.395902 101.295711 
L 273.577435 101.7307 
L 273.697411 101.272696 
L 273.912081 101.756016 
L 274.034308 101.249681 
L 274.266743 101.781333 
L 274.363519 104.147302 
L 274.554007 98.665067 
L 274.6419 101.808951 
L 275.455519 101.86649 
L 275.622974 104.237061 
L 275.858138 98.566102 
L 275.894986 101.896409 
L 276.356911 101.928631 
L 276.428571 101.079368 
L 276.841917 101.963154 
L 276.959427 104.324519 
L 277.162533 98.467136 
L 277.35053 101.997677 
L 277.883398 102.032199 
L 278.315658 104.414279 
L 278.544286 98.36817 
L 279.02436 102.10815 
L 279.385726 100.879135 
L 279.633843 102.147276 
L 279.710651 104.50634 
L 279.926207 98.266903 
L 279.959798 100.840009 
L 280.270286 102.188703 
L 280.579577 100.800883 
L 280.934359 102.230131 
L 281.14436 104.596099 
L 281.211615 100.759456 
L 281.385343 98.165636 
L 281.626828 102.271558 
L 281.855576 100.718028 
L 282.348483 102.317589 
L 282.548524 100.676601 
L 282.616497 104.68816 
L 282.844526 98.064369 
L 283.100042 102.361318 
L 283.254592 100.63057 
L 283.866805 102.40965 
L 283.986518 100.586841 
L 284.12675 104.780221 
L 284.379872 97.963102 
L 284.696034 102.45568 
L 284.744877 100.540811 
L 285.530315 100.492479 
L 285.655751 104.872282 
L 285.915073 97.859533 
L 286.329448 100.444147 
L 286.42134 102.554646 
L 287.184775 100.393513 
L 287.259069 104.964343 
L 287.524401 97.758266 
L 288.040533 100.345181 
L 288.282138 102.655913 
L 288.862124 105.056404 
L 288.954973 100.292246 
L 289.133442 97.654697 
L 289.265246 102.708848 
L 289.885097 100.239311 
L 290.28446 102.764085 
L 290.501308 105.148465 
L 290.813616 97.55343 
L 290.846058 100.186376 
L 291.34045 102.81702 
L 291.838457 100.133441 
L 292.226854 105.235923 
L 292.433862 102.872256 
L 292.493359 97.449862 
L 292.846705 100.078204 
L 293.565199 102.929794 
L 293.919718 100.020666 
L 293.951777 105.327984 
L 294.240453 97.350896 
L 294.735036 102.985031 
L 295.00985 99.965429 
L 295.692981 105.417744 
L 295.943732 103.042569 
L 295.98702 97.247327 
L 296.116646 99.907891 
L 297.19167 103.100107 
L 297.291271 99.848051 
L 297.497465 105.505202 
L 297.796485 97.148362 
L 298.46628 99.790513 
L 298.479065 103.159947 
L 299.316387 105.594961 
L 299.605327 97.047095 
L 299.786094 103.219787 
L 300.9555 99.670834 
L 301.164208 105.682419 
L 301.172228 103.277325 
L 301.472206 96.950431 
L 301.472206 96.950431 
" clip-path="url(#p4f73c19b34)" style="fill: none; stroke-dasharray: 1,1.65; stroke-dashoffset: 0; stroke: #9467bd"/>
   </g>
   <g id="patch_3">
    <path d="M 60.944882 165.770079 
L 60.944882 19.502362 
" style="fill: none; stroke: #000000; stroke-width: 0.8; stroke-linejoin: miter; stroke-linecap: square"/>
   </g>
   <g id="patch_4">
    <path d="M 228.543307 165.770079 
L 228.543307 19.502362 
" style="fill: none; stroke: #000000; stroke-width: 0.8; stroke-linejoin: miter; stroke-linecap: square"/>
   </g>
   <g id="patch_5">
    <path d="M 60.944882 165.770079 
L 228.543307 165.770079 
" style="fill: none; stroke: #000000; stroke-width: 0.8; stroke-linejoin: miter; stroke-linecap: square"/>
   </g>
   <g id="patch_6">
    <path d="M 60.944882 19.502362 
L 228.543307 19.502362 
" style="fill: none; stroke: #000000; stroke-width: 0.8; stroke-linejoin: miter; stroke-linecap: square"/>
   </g>
  </g>
  <g id="axes_2">
   <g id="patch_7">
    <path d="M 295.582677 165.770079 
L 463.181102 165.770079 
L 463.181102 19.502362 
L 295.582677 19.502362 
z
" style="fill: #ffffff"/>
   </g>
   <g id="matplotlib.axis_3">
    <g id="xtick_5">
     <g id="line2d_26">
      <g>
       <use xlink:href="#m2a88a7de5f" x="295.582677" y="165.770079" style="stroke: #000000; stroke-width: 0.8"/>
      </g>
     </g>
     <g id="text_13">
      <!-- 0 -->
      <g transform="translate(293.358302 178.496329) scale(0.08 -0.08)">
       <use xlink:href="#ArialMT-30"/>
      </g>
     </g>
    </g>
    <g id="xtick_6">
     <g id="line2d_27">
      <g>
       <use xlink:href="#m2a88a7de5f" x="343.467942" y="165.770079" style="stroke: #000000; stroke-width: 0.8"/>
      </g>
     </g>
     <g id="text_14">
      <!-- 2 -->
      <g transform="translate(341.243567 178.496329) scale(0.08 -0.08)">
       <use xlink:href="#ArialMT-32"/>
      </g>
     </g>
    </g>
    <g id="xtick_7">
     <g id="line2d_28">
      <g>
       <use xlink:href="#m2a88a7de5f" x="391.353206" y="165.770079" style="stroke: #000000; stroke-width: 0.8"/>
      </g>
     </g>
     <g id="text_15">
      <!-- 4 -->
      <g transform="translate(389.128831 178.496329) scale(0.08 -0.08)">
       <use xlink:href="#ArialMT-34"/>
      </g>
     </g>
    </g>
    <g id="xtick_8">
     <g id="line2d_29">
      <g>
       <use xlink:href="#m2a88a7de5f" x="439.23847" y="165.770079" style="stroke: #000000; stroke-width: 0.8"/>
      </g>
     </g>
     <g id="text_16">
      <!-- 6 -->
      <g transform="translate(437.014095 178.496329) scale(0.08 -0.08)">
       <use xlink:href="#ArialMT-36"/>
      </g>
     </g>
    </g>
    <g id="text_17">
     <!-- System size $\ell$ -->
     <g transform="translate(355.02189 190.086329) scale(0.08 -0.08)">
      <use xlink:href="#ArialMT-53" transform="translate(0 0.78125)"/>
      <use xlink:href="#ArialMT-79" transform="translate(66.699219 0.78125)"/>
      <use xlink:href="#ArialMT-73" transform="translate(116.699219 0.78125)"/>
      <use xlink:href="#ArialMT-74" transform="translate(166.699219 0.78125)"/>
      <use xlink:href="#ArialMT-65" transform="translate(194.482422 0.78125)"/>
      <use xlink:href="#ArialMT-6d" transform="translate(250.097656 0.78125)"/>
      <use xlink:href="#ArialMT-20" transform="translate(333.398438 0.78125)"/>
      <use xlink:href="#ArialMT-73" transform="translate(361.181641 0.78125)"/>
      <use xlink:href="#ArialMT-69" transform="translate(411.181641 0.78125)"/>
      <use xlink:href="#ArialMT-7a" transform="translate(433.398438 0.78125)"/>
      <use xlink:href="#ArialMT-65" transform="translate(483.398438 0.78125)"/>
      <use xlink:href="#ArialMT-20" transform="translate(539.013672 0.78125)"/>
      <use xlink:href="#DejaVuSans-Oblique-2113" transform="translate(566.796875 0.78125)"/>
     </g>
    </g>
   </g>
   <g id="matplotlib.axis_4">
    <g id="ytick_7">
     <g id="line2d_30">
      <g>
       <use xlink:href="#mbe2d14b86c" x="295.582677" y="156.628346" style="stroke: #000000; stroke-width: 0.8"/>
      </g>
     </g>
     <g id="text_18">
      <!-- 0 -->
      <g transform="translate(284.133927 159.491471) scale(0.08 -0.08)">
       <use xlink:href="#ArialMT-30"/>
      </g>
     </g>
    </g>
    <g id="ytick_8">
     <g id="line2d_31">
      <g>
       <use xlink:href="#mbe2d14b86c" x="295.582677" y="133.774016" style="stroke: #000000; stroke-width: 0.8"/>
      </g>
     </g>
     <g id="text_19">
      <!-- 50 -->
      <g transform="translate(279.685177 136.637141) scale(0.08 -0.08)">
       <defs>
        <path id="ArialMT-35" d="M 266 1200 
L 856 1250 
Q 922 819 1161 601 
Q 1400 384 1738 384 
Q 2144 384 2425 690 
Q 2706 997 2706 1503 
Q 2706 1984 2436 2262 
Q 2166 2541 1728 2541 
Q 1456 2541 1237 2417 
Q 1019 2294 894 2097 
L 366 2166 
L 809 4519 
L 3088 4519 
L 3088 3981 
L 1259 3981 
L 1013 2750 
Q 1425 3038 1878 3038 
Q 2478 3038 2890 2622 
Q 3303 2206 3303 1553 
Q 3303 931 2941 478 
Q 2500 -78 1738 -78 
Q 1113 -78 717 272 
Q 322 622 266 1200 
z
" transform="scale(0.015625)"/>
       </defs>
       <use xlink:href="#ArialMT-35"/>
       <use xlink:href="#ArialMT-30" x="55.615234"/>
      </g>
     </g>
    </g>
    <g id="ytick_9">
     <g id="line2d_32">
      <g>
       <use xlink:href="#mbe2d14b86c" x="295.582677" y="110.919685" style="stroke: #000000; stroke-width: 0.8"/>
      </g>
     </g>
     <g id="text_20">
      <!-- 100 -->
      <g transform="translate(275.236427 113.78281) scale(0.08 -0.08)">
       <use xlink:href="#ArialMT-31"/>
       <use xlink:href="#ArialMT-30" x="55.615234"/>
       <use xlink:href="#ArialMT-30" x="111.230469"/>
      </g>
     </g>
    </g>
    <g id="ytick_10">
     <g id="line2d_33">
      <g>
       <use xlink:href="#mbe2d14b86c" x="295.582677" y="88.065354" style="stroke: #000000; stroke-width: 0.8"/>
      </g>
     </g>
     <g id="text_21">
      <!-- 150 -->
      <g transform="translate(275.236427 90.928479) scale(0.08 -0.08)">
       <use xlink:href="#ArialMT-31"/>
       <use xlink:href="#ArialMT-35" x="55.615234"/>
       <use xlink:href="#ArialMT-30" x="111.230469"/>
      </g>
     </g>
    </g>
    <g id="ytick_11">
     <g id="line2d_34">
      <g>
       <use xlink:href="#mbe2d14b86c" x="295.582677" y="65.211024" style="stroke: #000000; stroke-width: 0.8"/>
      </g>
     </g>
     <g id="text_22">
      <!-- 200 -->
      <g transform="translate(275.236427 68.074149) scale(0.08 -0.08)">
       <use xlink:href="#ArialMT-32"/>
       <use xlink:href="#ArialMT-30" x="55.615234"/>
       <use xlink:href="#ArialMT-30" x="111.230469"/>
      </g>
     </g>
    </g>
    <g id="ytick_12">
     <g id="line2d_35">
      <g>
       <use xlink:href="#mbe2d14b86c" x="295.582677" y="42.356693" style="stroke: #000000; stroke-width: 0.8"/>
      </g>
     </g>
     <g id="text_23">
      <!-- 250 -->
      <g transform="translate(275.236427 45.219818) scale(0.08 -0.08)">
       <use xlink:href="#ArialMT-32"/>
       <use xlink:href="#ArialMT-35" x="55.615234"/>
       <use xlink:href="#ArialMT-30" x="111.230469"/>
      </g>
     </g>
    </g>
    <g id="ytick_13">
     <g id="line2d_36">
      <g>
       <use xlink:href="#mbe2d14b86c" x="295.582677" y="19.502362" style="stroke: #000000; stroke-width: 0.8"/>
      </g>
     </g>
     <g id="text_24">
      <!-- 300 -->
      <g transform="translate(275.236427 22.365487) scale(0.08 -0.08)">
       <use xlink:href="#ArialMT-33"/>
       <use xlink:href="#ArialMT-30" x="55.615234"/>
       <use xlink:href="#ArialMT-30" x="111.230469"/>
      </g>
     </g>
    </g>
    <g id="text_25">
     <!-- Largest eigenvalue -->
     <g transform="translate(269.552677 126.43622) rotate(-90) scale(0.08 -0.08)">
      <defs>
       <path id="ArialMT-4c" d="M 469 0 
L 469 4581 
L 1075 4581 
L 1075 541 
L 3331 541 
L 3331 0 
L 469 0 
z
" transform="scale(0.015625)"/>
       <path id="ArialMT-67" d="M 319 -275 
L 866 -356 
Q 900 -609 1056 -725 
Q 1266 -881 1628 -881 
Q 2019 -881 2231 -725 
Q 2444 -569 2519 -288 
Q 2563 -116 2559 434 
Q 2191 0 1641 0 
Q 956 0 581 494 
Q 206 988 206 1678 
Q 206 2153 378 2554 
Q 550 2956 876 3175 
Q 1203 3394 1644 3394 
Q 2231 3394 2613 2919 
L 2613 3319 
L 3131 3319 
L 3131 450 
Q 3131 -325 2973 -648 
Q 2816 -972 2473 -1159 
Q 2131 -1347 1631 -1347 
Q 1038 -1347 672 -1080 
Q 306 -813 319 -275 
z
M 784 1719 
Q 784 1066 1043 766 
Q 1303 466 1694 466 
Q 2081 466 2343 764 
Q 2606 1063 2606 1700 
Q 2606 2309 2336 2618 
Q 2066 2928 1684 2928 
Q 1309 2928 1046 2623 
Q 784 2319 784 1719 
z
" transform="scale(0.015625)"/>
       <path id="ArialMT-6e" d="M 422 0 
L 422 3319 
L 928 3319 
L 928 2847 
Q 1294 3394 1984 3394 
Q 2284 3394 2536 3286 
Q 2788 3178 2913 3003 
Q 3038 2828 3088 2588 
Q 3119 2431 3119 2041 
L 3119 0 
L 2556 0 
L 2556 2019 
Q 2556 2363 2490 2533 
Q 2425 2703 2258 2804 
Q 2091 2906 1866 2906 
Q 1506 2906 1245 2678 
Q 984 2450 984 1813 
L 984 0 
L 422 0 
z
" transform="scale(0.015625)"/>
       <path id="ArialMT-76" d="M 1344 0 
L 81 3319 
L 675 3319 
L 1388 1331 
Q 1503 1009 1600 663 
Q 1675 925 1809 1294 
L 2547 3319 
L 3125 3319 
L 1869 0 
L 1344 0 
z
" transform="scale(0.015625)"/>
       <path id="ArialMT-6c" d="M 409 0 
L 409 4581 
L 972 4581 
L 972 0 
L 409 0 
z
" transform="scale(0.015625)"/>
       <path id="ArialMT-75" d="M 2597 0 
L 2597 488 
Q 2209 -75 1544 -75 
Q 1250 -75 995 37 
Q 741 150 617 320 
Q 494 491 444 738 
Q 409 903 409 1263 
L 409 3319 
L 972 3319 
L 972 1478 
Q 972 1038 1006 884 
Q 1059 663 1231 536 
Q 1403 409 1656 409 
Q 1909 409 2131 539 
Q 2353 669 2445 892 
Q 2538 1116 2538 1541 
L 2538 3319 
L 3100 3319 
L 3100 0 
L 2597 0 
z
" transform="scale(0.015625)"/>
      </defs>
      <use xlink:href="#ArialMT-4c"/>
      <use xlink:href="#ArialMT-61" x="55.615234"/>
      <use xlink:href="#ArialMT-72" x="111.230469"/>
      <use xlink:href="#ArialMT-67" x="144.53125"/>
      <use xlink:href="#ArialMT-65" x="200.146484"/>
      <use xlink:href="#ArialMT-73" x="255.761719"/>
      <use xlink:href="#ArialMT-74" x="305.761719"/>
      <use xlink:href="#ArialMT-20" x="333.544922"/>
      <use xlink:href="#ArialMT-65" x="361.328125"/>
      <use xlink:href="#ArialMT-69" x="416.943359"/>
      <use xlink:href="#ArialMT-67" x="439.160156"/>
      <use xlink:href="#ArialMT-65" x="494.775391"/>
      <use xlink:href="#ArialMT-6e" x="550.390625"/>
      <use xlink:href="#ArialMT-76" x="606.005859"/>
      <use xlink:href="#ArialMT-61" x="656.005859"/>
      <use xlink:href="#ArialMT-6c" x="711.621094"/>
      <use xlink:href="#ArialMT-75" x="733.837891"/>
      <use xlink:href="#ArialMT-65" x="789.453125"/>
     </g>
    </g>
   </g>
   <g id="line2d_37">
    <path d="M 297.97694 156.628346 
L 300.371204 156.628346 
L 302.765467 156.628346 
L 305.15973 156.628346 
L 307.553993 156.628346 
L 309.948256 156.628347 
L 312.34252 156.628346 
L 314.736783 156.628346 
L 317.131046 156.628346 
L 319.525309 156.628346 
L 321.919573 156.628346 
L 324.313836 156.628346 
" clip-path="url(#p29746b4780)" style="fill: none; stroke: #1f77b4; stroke-linecap: square"/>
   </g>
   <g id="line2d_38">
    <path d="M 326.708099 156.603626 
L 329.102362 156.057312 
L 331.496625 155.500105 
L 333.890889 154.933851 
L 336.285152 154.360089 
L 338.679415 153.780074 
L 341.073678 153.194778 
L 343.467942 152.604904 
L 345.862205 152.010881 
L 348.256468 151.412857 
L 350.650731 150.810675 
L 353.044994 150.203856 
L 355.439258 149.591543 
L 357.833521 148.972435 
L 360.227784 148.344702 
L 362.622047 147.705851 
L 365.01631 147.052559 
L 367.410574 146.169124 
L 369.804837 144.697767 
L 372.1991 143.216794 
L 374.593363 141.727374 
L 376.987627 140.230525 
L 379.38189 138.727117 
L 381.776153 137.217863 
L 384.170416 135.703311 
L 386.564679 134.183842 
L 388.958943 132.659652 
L 391.353206 131.130744 
L 393.747469 129.596907 
L 396.141732 128.057696 
L 398.535996 126.5124 
L 400.930259 124.960015 
L 403.324522 123.399193 
L 405.718785 121.8282 
L 408.113048 120.244846 
L 410.507312 118.646415 
L 412.901575 117.029581 
L 415.295838 115.390312 
L 417.690101 113.723773 
L 420.084364 111.405005 
L 422.478628 109.067046 
L 424.872891 106.713131 
L 427.267154 104.345226 
L 429.661417 101.964904 
L 432.055681 99.573392 
L 434.449944 97.171619 
L 436.844207 94.760237 
L 439.23847 92.339643 
L 441.632733 89.909984 
L 444.026997 87.471153 
L 446.42126 85.022792 
L 448.815523 82.564272 
L 451.209786 80.094678 
L 453.604049 77.612783 
L 455.998313 75.117019 
L 458.392576 72.60544 
L 460.786839 70.075685 
L 463.181102 67.52493 
L 465.575366 64.949851 
L 467.969629 62.346579 
L 470.363892 59.580679 
L 472.758155 56.414442 
L 475.152418 53.224561 
L 477.546682 50.013638 
L 479.940945 46.783815 
L 482.335208 43.536834 
L 484.729471 40.274073 
L 487.123735 36.996583 
L 488.559055 35.0234 
" clip-path="url(#p29746b4780)" style="fill: none; stroke: #ff7f0e; stroke-linecap: square"/>
   </g>
   <g id="line2d_39">
    <path d="M 326.599471 156.628346 
L 488.559055 156.628346 
L 488.559055 156.628346 
" clip-path="url(#p29746b4780)" style="fill: none; stroke: #2ca02c; stroke-linecap: square"/>
   </g>
   <g id="line2d_40">
    <path d="M 326.598466 156.628347 
L 386.682717 156.628346 
L 488.559055 156.628346 
L 488.559055 156.628346 
" clip-path="url(#p29746b4780)" style="fill: none; stroke: #d62728; stroke-linecap: square"/>
   </g>
   <g id="line2d_41">
    <path d="M 453.628399 77.806083 
L 453.657394 77.977765 
L 453.692182 78.174354 
L 453.750171 78.376914 
L 453.808136 78.610866 
L 453.889398 78.850594 
L 453.976501 79.115505 
L 454.07536 79.399224 
L 454.185975 79.701844 
L 454.30849 80.023473 
L 454.442951 80.364232 
L 454.589504 80.72426 
L 454.748196 81.027848 
L 454.919218 81.18435 
L 455.096346 81.366797 
L 455.298781 81.555029 
L 455.501096 81.776356 
L 455.729461 82.003648 
L 455.964434 82.257628 
L 456.205895 82.53864 
L 456.474747 82.825916 
L 456.743407 83.14779 
L 457.040488 83.476136 
L 457.344822 83.832579 
L 457.663834 84.21025 
L 457.997858 84.609421 
L 458.347229 85.030371 
L 458.704117 85.481036 
L 459.093425 85.938742 
L 459.491016 86.426773 
L 459.905487 86.937764 
L 460.328242 87.48018 
L 460.786839 88.029815 
L 463.181102 91.011044 
L 463.181102 91.011044 
L 465.575366 93.978445 
L 466.215951 94.790597 
L 466.904565 95.608745 
L 467.606371 96.462921 
L 468.320915 97.354009 
L 469.088061 98.249024 
L 469.869668 99.180784 
L 470.679504 100.138016 
L 471.51843 101.120382 
L 472.387284 102.127441 
L 473.286928 103.158644 
L 474.218249 104.213323 
L 475.165635 105.305694 
L 476.179126 106.389607 
L 477.193217 107.525863 
L 478.276669 108.64841 
L 479.378772 109.805719 
L 480.517364 110.979568 
L 481.67432 112.188306 
L 482.906216 113.369667 
L 484.138591 114.604495 
L 485.447894 115.803542 
L 486.777213 117.031613 
L 488.145774 118.263838 
L 488.559055 118.63921 
" clip-path="url(#p29746b4780)" style="fill: none; stroke: #9467bd; stroke-linecap: square"/>
   </g>
   <g id="line2d_42">
    <path d="M 453.605199 77.518543 
L 453.610993 77.653001 
L 453.611089 77.402754 
L 453.628663 77.305692 
L 453.658016 77.227439 
L 453.699174 77.168091 
L 453.752278 77.127766 
L 453.817378 77.106601 
L 453.894641 77.104751 
L 453.984139 77.122395 
L 454.079814 77.165646 
L 454.200484 77.216966 
L 454.327668 77.294353 
L 454.467756 77.392147 
L 454.620965 77.510633 
L 454.78751 77.650115 
L 454.96763 77.810922 
L 455.154598 77.999488 
L 455.369603 78.197937 
L 455.59203 78.424924 
L 455.829182 78.674787 
L 456.08137 78.947972 
L 456.341195 79.251355 
L 456.632314 79.566207 
L 456.93186 79.912286 
L 457.239642 80.290429 
L 457.581232 80.681061 
L 457.931992 81.104933 
L 458.300804 81.555932 
L 458.67881 82.041971 
L 459.094718 82.541831 
L 459.521016 83.078081 
L 459.957395 83.651971 
L 460.435385 84.240525 
L 460.924844 84.868158 
L 461.436786 85.527658 
L 461.960172 86.228708 
L 462.53106 86.944989 
L 463.115116 87.70426 
L 463.724911 88.498126 
L 464.347827 89.337794 
L 465.025236 90.191963 
L 465.717776 91.093126 
L 466.439862 92.03103 
L 467.177008 93.018966 
L 467.97662 94.018195 
L 468.793519 95.067978 
L 469.644153 96.155182 
L 470.511953 97.29595 
L 471.450672 98.4406 
L 472.40888 99.638048 
L 473.405037 100.870847 
L 474.440077 102.137872 
L 475.494774 103.46035 
L 476.630158 104.768259 
L 477.787138 106.128255 
L 478.986185 107.514948 
L 480.227897 108.925636 
L 481.512611 110.357295 
L 482.840613 111.806584 
L 484.211975 113.269875 
L 485.604814 114.780981 
L 487.083655 116.222104 
L 488.559055 117.678826 
" clip-path="url(#p29746b4780)" style="fill: none; stroke: #8c564b; stroke-linecap: square"/>
   </g>
   <g id="line2d_43">
    <path d="M 349.665252 151.074993 
L 349.966666 151.271998 
L 351.475818 151.926823 
L 354.443962 152.967983 
L 357.918541 153.943941 
L 361.694989 154.747978 
L 365.592705 155.351007 
L 370.890659 155.871352 
L 376.669908 156.205018 
L 385.539624 156.453937 
L 399.593949 156.584004 
L 439.123139 156.626956 
L 488.559055 156.628346 
L 488.559055 156.628346 
" clip-path="url(#p29746b4780)" style="fill: none; stroke: #e377c2; stroke-linecap: square"/>
   </g>
   <g id="line2d_44">
    <path d="M 349.652946 151.041854 
L 349.657136 151.06261 
L 349.738134 151.012178 
L 350.384729 151.110439 
L 353.165976 151.820485 
L 360.480403 153.604167 
L 364.081255 154.287726 
L 366.794961 154.727117 
L 373.970448 155.518923 
L 378.418726 155.864754 
L 390.992247 156.338218 
L 399.124074 156.476787 
L 412.107206 156.574597 
L 437.173346 156.621737 
L 488.559055 156.628346 
L 488.559055 156.628346 
" clip-path="url(#p29746b4780)" style="fill: none; stroke: #7f7f7f; stroke-linecap: square"/>
   </g>
   <g id="line2d_45">
    <path d="M 377.907143 139.65769 
L 381.956944 142.421863 
L 385.215775 144.398707 
L 388.4827 146.124541 
L 392.189833 147.801444 
L 397.089741 149.58362 
L 401.16595 150.79445 
L 404.696626 151.69644 
L 411.658976 153.044191 
L 414.780353 153.529581 
L 421.558704 154.371031 
L 428.936339 155.031128 
L 434.763688 155.435664 
L 451.213545 156.083909 
L 477.225539 156.464226 
L 477.225539 156.464226 
L 488.559055 156.530829 
L 488.559055 156.530829 
" clip-path="url(#p29746b4780)" style="fill: none; stroke: #bcbd22; stroke-linecap: square"/>
   </g>
   <g id="line2d_46">
    <path d="M 377.904294 139.655661 
L 381.959961 142.430344 
L 386.501112 145.118099 
L 390.873156 147.230868 
L 394.508007 148.68943 
L 398.074789 149.897435 
L 402.342108 151.103656 
L 407.393237 152.25753 
L 413.253508 153.300858 
L 419.867995 154.185173 
L 425.235095 154.751822 
L 436.844207 155.52709 
L 447.850755 155.97295 
L 462.783224 156.304668 
L 475.900458 156.453752 
L 488.559055 156.530723 
L 488.559055 156.530723 
" clip-path="url(#p29746b4780)" style="fill: none; stroke: #17becf; stroke-linecap: square"/>
   </g>
   <g id="line2d_47">
    <path d="M 401.85691 124.456348 
L 401.878842 124.528694 
L 401.908555 124.608747 
L 401.946049 124.696511 
L 401.991324 124.791997 
L 402.040503 124.897984 
L 402.105387 125.00621 
L 402.174198 125.124994 
L 402.250958 125.251611 
L 402.335691 125.386104 
L 402.424375 125.531491 
L 402.529363 125.678928 
L 402.63847 125.83738 
L 402.75586 126.003948 
L 402.881655 126.178708 
L 403.015949 126.361739 
L 403.158863 126.553128 
L 403.310563 126.752967 
L 403.466574 126.964792 
L 403.640804 127.178381 
L 403.814915 127.407763 
L 404.007988 127.638816 
L 404.205874 127.882449 
L 404.413553 128.13518 
L 404.631263 128.397132 
L 404.859221 128.668428 
L 405.097689 128.949196 
L 405.346932 129.239562 
L 405.607212 129.539658 
L 405.878842 129.849608 
L 406.156002 130.174194 
L 406.457391 130.499579 
L 406.758518 130.844789 
L 407.085359 131.190468 
L 407.411912 131.556802 
L 407.765832 131.923184 
L 408.119441 132.311088 
L 408.502308 132.698508 
L 408.884791 133.108342 
L 409.298616 133.517021 
L 409.720581 133.942594 
L 410.150303 134.385719 
L 410.614958 134.826352 
L 411.079133 135.291669 
L 411.580995 135.6969 
L 412.082306 136.077732 
L 412.624343 136.456264 
L 413.176963 136.849256 
L 413.751323 137.250827 
L 414.348332 137.660726 
L 414.956236 138.085379 
L 415.613892 138.504273 
L 416.284525 138.937283 
L 416.967465 139.384847 
L 417.706574 139.823659 
L 418.46036 140.276162 
L 419.24417 140.734162 
L 420.042441 141.206246 
L 420.906531 141.664225 
L 421.769686 142.145235 
L 422.703736 142.608787 
L 423.656174 143.084757 
L 424.64613 143.562095 
L 425.654283 144.052517 
L 426.743194 144.517296 
L 427.83129 145.007502 
L 429.004431 145.467251 
L 430.176902 145.953532 
L 431.437913 146.404147 
L 432.698444 146.882552 
L 434.049767 147.319815 
L 435.424122 147.767209 
L 436.844207 148.206224 
L 439.23847 148.896313 
L 439.23847 148.896313 
L 441.632733 149.528321 
L 443.217855 149.945483 
L 444.889482 150.303865 
L 446.560654 150.696356 
L 448.313494 151.026045 
L 450.085201 151.366049 
L 451.894282 151.691519 
L 453.739038 152.002323 
L 455.617649 152.298391 
L 457.528271 152.579782 
L 459.469061 152.846639 
L 461.438175 153.099192 
L 463.420601 153.364182 
L 465.453426 153.562593 
L 467.485341 153.800144 
L 469.560952 153.973219 
L 471.635725 154.184876 
L 473.748087 154.334874 
L 475.868136 154.498654 
L 477.996133 154.674956 
L 480.153891 154.79473 
L 482.311026 154.949971 
L 484.493589 155.052447 
L 486.681347 155.168232 
L 488.559055 155.277316 
" clip-path="url(#p29746b4780)" style="fill: none; stroke: #1f77b4; stroke-linecap: square"/>
   </g>
   <g id="line2d_48">
    <path d="M 401.836416 124.334801 
L 401.8379 124.285628 
L 401.84276 124.391714 
L 401.847214 124.244221 
L 401.860502 124.213141 
L 401.889616 124.184845 
L 401.922801 124.166967 
L 401.964054 124.157035 
L 402.013447 124.155117 
L 402.066959 124.16378 
L 402.137087 124.175624 
L 402.211525 124.198225 
L 402.294534 124.22919 
L 402.386234 124.268628 
L 402.486793 124.316662 
L 402.596355 124.373419 
L 402.71511 124.439043 
L 402.843203 124.513682 
L 402.980849 124.597498 
L 403.128288 124.690665 
L 403.285687 124.793365 
L 403.453357 124.905794 
L 403.631514 125.02816 
L 403.820446 125.160679 
L 404.01486 125.306361 
L 404.231876 125.457116 
L 404.449083 125.624412 
L 404.690282 125.797107 
L 404.931695 125.987114 
L 405.198655 126.182852 
L 405.472655 126.393631 
L 405.760469 126.616766 
L 406.062601 126.852588 
L 406.379578 127.101439 
L 406.704144 127.367205 
L 407.060339 127.639636 
L 407.41694 127.933519 
L 407.80778 128.234297 
L 408.20822 128.553761 
L 408.617975 128.892769 
L 409.066444 129.238823 
L 409.525903 129.605214 
L 410.006839 129.987997 
L 410.510161 130.387531 
L 411.025023 130.809677 
L 411.588226 131.238108 
L 412.152194 131.69602 
L 412.7691 132.159284 
L 413.401234 132.646913 
L 414.047828 133.160334 
L 414.755237 133.67658 
L 415.480101 134.218653 
L 416.238795 134.778631 
L 417.032852 135.356188 
L 417.845034 135.962042 
L 418.733042 136.561763 
L 419.642551 137.188467 
L 420.572531 137.844105 
L 421.587627 138.484046 
L 422.626497 139.150398 
L 423.687946 139.84527 
L 424.842675 140.510982 
L 426.022784 141.201356 
L 427.227098 141.918593 
L 428.530056 142.589539 
L 429.858872 143.28241 
L 431.237824 143.970601 
L 432.666649 144.651246 
L 434.119942 145.353697 
L 435.670515 145.978209 
L 437.2446 146.619619 
L 438.841597 147.279365 
L 440.528068 147.845585 
L 442.213797 148.464922 
L 443.981625 148.983693 
L 445.767722 149.516419 
L 447.571991 150.06296 
L 449.445645 150.504432 
L 451.318222 150.998184 
L 453.251518 151.387756 
L 455.183736 151.828184 
L 457.168413 152.167899 
L 459.152132 152.556446 
L 461.180839 152.849703 
L 463.20866 153.18925 
L 465.274862 153.440247 
L 467.340321 153.734594 
L 469.438437 153.947879 
L 471.535932 154.20131 
L 473.661223 154.381454 
L 475.785988 154.598401 
L 477.934504 154.749774 
L 480.082566 154.934581 
L 482.240491 155.104551 
L 484.422886 155.19804 
L 486.599798 155.342236 
L 488.559055 155.428223 
" clip-path="url(#p29746b4780)" style="fill: none; stroke: #ff7f0e; stroke-linecap: square"/>
   </g>
   <g id="line2d_49">
    <path d="M 429.243235 102.408392 
L 429.264808 102.426756 
L 429.296077 102.453456 
L 429.337019 102.488641 
L 429.387705 102.532497 
L 429.448184 102.585244 
L 429.518504 102.647127 
L 429.598783 102.718414 
L 429.689095 102.799388 
L 429.78951 102.890345 
L 429.900173 102.991588 
L 430.021179 103.103426 
L 430.152696 103.226172 
L 430.294844 103.360139 
L 430.447789 103.505644 
L 430.6117 103.663004 
L 430.786769 103.832534 
L 430.97321 104.014555 
L 431.171216 104.209387 
L 431.381049 104.417352 
L 431.596868 104.64363 
L 431.837156 104.873977 
L 432.077612 105.128243 
L 432.343686 105.38708 
L 432.609976 105.670701 
L 432.903178 105.959374 
L 433.203658 106.268593 
L 433.511201 106.598903 
L 433.847906 106.934936 
L 434.184923 107.298208 
L 434.552801 107.667601 
L 434.921015 108.06535 
L 435.322054 108.469565 
L 435.732096 108.897487 
L 436.159855 109.343866 
L 436.605882 109.809075 
L 437.070824 110.293484 
L 437.545439 110.803926 
L 438.060086 111.321299 
L 438.575235 111.87231 
L 439.133362 112.43008 
L 439.70346 113.015637 
L 440.296926 113.622319 
L 440.914694 114.250355 
L 441.557601 114.89993 
L 442.226654 115.57118 
L 442.922786 116.26418 
L 443.632757 116.988444 
L 444.400286 117.715269 
L 445.168557 118.483761 
L 445.998624 119.252316 
L 446.829458 120.064169 
L 447.726516 120.872719 
L 448.624365 121.726138 
L 449.592845 122.571845 
L 450.562114 123.463899 
L 451.606276 124.342643 
L 452.651229 125.269081 
L 453.775024 126.1753 
L 454.899537 127.130409 
L 456.106198 128.057031 
L 457.313481 129.03357 
L 458.605402 129.972073 
L 459.897753 130.961357 
L 461.276083 131.901977 
L 462.67644 132.866357 
L 464.098153 133.855907 
L 465.605198 134.779739 
L 467.133361 135.723726 
L 468.682162 136.68913 
L 470.31232 137.572174 
L 471.942095 138.508214 
L 473.610872 139.426049 
L 475.37202 140.210257 
L 477.114397 141.084973 
L 478.92537 141.85618 
L 480.735577 142.680939 
L 482.607987 143.397345 
L 484.479582 144.167217 
L 486.40682 144.826193 
L 488.333221 145.538292 
L 488.559055 145.606973 
" clip-path="url(#p29746b4780)" style="fill: none; stroke: #2ca02c; stroke-linecap: square"/>
   </g>
   <g id="line2d_50">
    <path d="M 429.226452 102.403021 
L 429.228966 102.396292 
L 429.236268 102.402483 
L 429.248383 102.421614 
L 429.279796 102.439533 
L 429.316045 102.470605 
L 429.362039 102.510254 
L 429.417777 102.558685 
L 429.478376 102.620881 
L 429.558823 102.682848 
L 429.639223 102.763871 
L 429.739806 102.845218 
L 429.845536 102.941463 
L 429.961538 103.048153 
L 430.087955 103.1656 
L 430.224955 103.294116 
L 430.372657 103.434018 
L 430.531277 103.585622 
L 430.700935 103.749243 
L 430.881869 103.925201 
L 431.068334 104.118741 
L 431.278359 104.315401 
L 431.494417 104.530293 
L 431.722639 104.758812 
L 431.956869 105.006389 
L 432.216814 105.258053 
L 432.483368 105.529455 
L 432.763305 105.815833 
L 433.049803 106.122898 
L 433.364816 106.434906 
L 433.679542 106.773861 
L 434.024435 107.118136 
L 434.369018 107.49047 
L 434.745611 107.868455 
L 435.130489 108.269715 
L 435.532199 108.688872 
L 435.951362 109.126305 
L 436.378954 109.588818 
L 436.844207 110.057461 
L 439.23847 112.538233 
L 439.23847 112.538233 
L 441.632733 114.97555 
L 442.291515 115.657985 
L 443.004024 116.344679 
L 443.731521 117.061917 
L 444.488299 117.800827 
L 445.275413 118.561235 
L 446.078018 119.354049 
L 446.944861 120.14517 
L 447.81247 120.980473 
L 448.748795 121.810156 
L 449.685886 122.685542 
L 450.696049 123.550258 
L 451.706979 124.462086 
L 452.795076 125.356922 
L 453.883915 126.300138 
L 455.053536 127.218693 
L 456.223804 128.186734 
L 457.43602 129.164256 
L 458.752817 130.081731 
L 460.071768 131.04653 
L 461.412101 132.03868 
L 462.838579 132.975919 
L 464.286821 133.935584 
L 465.777705 134.888137 
L 467.310632 135.830867 
L 468.884908 136.761117 
L 470.499599 137.676333 
L 472.133875 138.610385 
L 473.807034 139.525963 
L 475.572181 140.307344 
L 477.336274 141.140162 
L 479.117223 141.987755 
L 480.963271 142.72886 
L 482.823734 143.482727 
L 484.713047 144.208358 
L 486.616007 144.946235 
L 488.559055 145.568949 
" clip-path="url(#p29746b4780)" style="fill: none; stroke: #d62728; stroke-linecap: square"/>
   </g>
   <g id="line2d_51">
    <path d="M 480.57667 45.923554 
L 480.729998 45.928004 
L 480.935091 45.998823 
L 482.291728 47.257746 
L 487.990147 55.071998 
L 488.559055 55.937422 
L 488.559055 55.937422 
" clip-path="url(#p29746b4780)" style="fill: none; stroke: #9467bd; stroke-linecap: square"/>
   </g>
   <g id="patch_8">
    <path d="M 295.582677 165.770079 
L 295.582677 19.502362 
" style="fill: none; stroke: #000000; stroke-width: 0.8; stroke-linejoin: miter; stroke-linecap: square"/>
   </g>
   <g id="patch_9">
    <path d="M 463.181102 165.770079 
L 463.181102 19.502362 
" style="fill: none; stroke: #000000; stroke-width: 0.8; stroke-linejoin: miter; stroke-linecap: square"/>
   </g>
   <g id="patch_10">
    <path d="M 295.582677 165.770079 
L 463.181102 165.770079 
" style="fill: none; stroke: #000000; stroke-width: 0.8; stroke-linejoin: miter; stroke-linecap: square"/>
   </g>
   <g id="patch_11">
    <path d="M 295.582677 19.502362 
L 463.181102 19.502362 
" style="fill: none; stroke: #000000; stroke-width: 0.8; stroke-linejoin: miter; stroke-linecap: square"/>
   </g>
  </g>
  <g id="text_26">
   <!-- (a) -->
   <g transform="translate(19.489828 11.701417) scale(0.08 -0.08)">
    <defs>
     <path id="ArialMT-28" d="M 1497 -1347 
Q 1031 -759 709 28 
Q 388 816 388 1659 
Q 388 2403 628 3084 
Q 909 3875 1497 4659 
L 1900 4659 
Q 1522 4009 1400 3731 
Q 1209 3300 1100 2831 
Q 966 2247 966 1656 
Q 966 153 1900 -1347 
L 1497 -1347 
z
" transform="scale(0.015625)"/>
     <path id="ArialMT-29" d="M 791 -1347 
L 388 -1347 
Q 1322 153 1322 1656 
Q 1322 2244 1188 2822 
Q 1081 3291 891 3722 
Q 769 4003 388 4659 
L 791 4659 
Q 1378 3875 1659 3084 
Q 1900 2403 1900 1659 
Q 1900 816 1576 28 
Q 1253 -759 791 -1347 
z
" transform="scale(0.015625)"/>
    </defs>
    <use xlink:href="#ArialMT-28"/>
    <use xlink:href="#ArialMT-61" x="33.300781"/>
    <use xlink:href="#ArialMT-29" x="88.916016"/>
   </g>
  </g>
  <g id="text_27">
   <!-- (b) -->
   <g transform="translate(263.269355 11.701417) scale(0.08 -0.08)">
    <defs>
     <path id="ArialMT-62" d="M 941 0 
L 419 0 
L 419 4581 
L 981 4581 
L 981 2947 
Q 1338 3394 1891 3394 
Q 2197 3394 2470 3270 
Q 2744 3147 2920 2923 
Q 3097 2700 3197 2384 
Q 3297 2069 3297 1709 
Q 3297 856 2875 390 
Q 2453 -75 1863 -75 
Q 1275 -75 941 416 
L 941 0 
z
M 934 1684 
Q 934 1088 1097 822 
Q 1363 388 1816 388 
Q 2184 388 2453 708 
Q 2722 1028 2722 1663 
Q 2722 2313 2464 2622 
Q 2206 2931 1841 2931 
Q 1472 2931 1203 2611 
Q 934 2291 934 1684 
z
" transform="scale(0.015625)"/>
    </defs>
    <use xlink:href="#ArialMT-28"/>
    <use xlink:href="#ArialMT-62" x="33.300781"/>
    <use xlink:href="#ArialMT-29" x="88.916016"/>
   </g>
  </g>
 </g>
 <defs>
  <clipPath id="p4f73c19b34">
   <rect x="60.944882" y="19.502362" width="167.598425" height="146.267717"/>
  </clipPath>
  <clipPath id="p29746b4780">
   <rect x="295.582677" y="19.502362" width="167.598425" height="146.267717"/>
  </clipPath>
 </defs>
</svg>
